<svg width="223" height="239" viewBox="0 0 223 239" fill="none" xmlns="http://www.w3.org/2000/svg">
<path d="M2.5 1.5H220.5V159V236.5H2.5V167V1.5Z" fill="url(#paint0_linear_206_1735)" stroke="url(#paint1_linear_206_1735)" stroke-width="3"/>
<path d="M192.777 173.63C191.531 168.555 188.459 164.246 184.259 161.678L172.058 154.317L168.999 152.496L145.636 138.381L142.368 136.407L136.492 132.84L134.198 131.475L133.086 131.019C130.86 130.108 128.74 129.349 126.654 128.705V110.305L133.225 107.117C135.229 106.145 136.933 104.559 138.129 102.554C139.328 100.546 139.965 98.204 139.968 95.8103V84.3139L143.097 83.2891C144.949 82.6979 146.575 81.4699 147.735 79.7879C148.894 78.1059 149.523 76.0597 149.529 73.9543V71.6015V71.6032C149.524 69.0183 148.581 66.5418 146.906 64.7141C145.231 62.8863 142.962 61.8566 140.594 61.8514H139.968V39.1622C139.947 36.2707 139.241 33.4335 137.918 30.9284C136.914 29.0092 135.565 27.3323 133.954 25.9959C130.871 23.4534 127.112 22.0814 123.247 22.0881H99.5717C97.059 22.083 94.5914 21.353 92.4169 19.9742C90.2441 18.5954 88.4438 16.6152 87.1959 14.2338L82.8843 6L74.4367 14.6505C70.6017 18.6412 68.2816 24.0616 67.9399 29.8328C67.5985 35.6052 69.2606 41.3053 72.5944 45.8025C74.3481 48.2417 76.507 50.3014 78.9561 51.8733V61.852H78.2949H78.2965C75.9282 61.8571 73.6591 62.8869 71.9844 64.7147C70.3098 66.5424 69.3662 69.0188 69.3616 71.6037V73.9565V73.9548C69.3678 76.0603 69.9963 78.1065 71.1556 79.7885C72.315 81.4705 73.9415 82.6985 75.793 83.2897L78.956 84.3145V95.8109C78.9529 98.2009 79.5845 100.542 80.7749 102.549C81.9668 104.556 83.6647 106.143 85.6654 107.117L92.2365 110.305V128.291V128.289C89.9923 128.955 87.8057 129.831 85.7011 130.908L85.667 130.871L84.832 131.403L84.624 131.516L76.5241 136.411L73.2556 138.385L49.8934 152.5L46.8344 154.321L34.6327 161.682L34.6311 161.679C30.4316 164.247 27.36 168.556 26.1136 173.631L12 231H206.888L192.777 173.63ZM129.958 133.829L126.656 136.828V132.654C127.733 133.032 128.846 133.411 129.958 133.829ZM140.595 65.6454C143.608 65.6505 146.049 68.3149 146.054 71.6026V73.9554V73.9537C146.051 76.5944 144.45 78.9149 142.126 79.6451L139.97 80.3667V65.6454H140.595ZM136.494 61.8511V73.9165H135.033C132.462 73.9165 130.376 71.6399 130.376 68.8313V55.7408H136.493L136.494 61.8511ZM75.1014 43.1456C72.4072 39.392 71.0878 34.6799 71.403 29.9234C71.7181 25.1686 73.6441 20.7105 76.8041 17.4192L82.0545 12.07L84.1745 16.0912C85.7218 19.0622 87.9613 21.5319 90.6665 23.2513C93.3717 24.9723 96.4446 25.8785 99.575 25.8819H123.251C126.362 25.8785 129.389 26.9846 131.872 29.0307C133.109 30.0539 134.138 31.3462 134.897 32.825C135.937 34.7442 136.487 36.931 136.495 39.1616V51.9485L91.4761 51.9468C91.2558 51.9536 91.0354 51.9418 90.8165 51.9096L90.3649 51.8723H90.3633C87.6148 51.7351 84.9238 50.9593 82.4732 49.5958C82.1473 49.4619 81.8322 49.2959 81.5342 49.1012C80.7396 48.6421 79.9838 48.1085 79.2745 47.5089C77.6946 46.2859 76.2885 44.8157 75.1028 43.1457L75.1014 43.1456ZM82.4362 53.8069C82.9235 53.9966 83.4093 54.2236 83.9307 54.376C84.9504 54.7605 85.9964 55.0519 87.0595 55.2483C87.477 55.3618 87.8945 55.4008 88.3104 55.4753C88.3803 55.4753 88.4501 55.5126 88.5184 55.5126V68.8298L88.5199 68.8315C88.5199 71.6399 86.4341 73.9167 83.8623 73.9167H82.4376L82.4362 53.8069ZM76.7697 79.6452C74.4448 78.9151 72.8448 76.5945 72.8417 73.9538V71.601V71.6027C72.8463 68.3149 75.2876 65.6502 78.2999 65.6454H78.9611L78.9595 80.3668L76.7697 79.6452ZM87.095 103.625C85.706 102.958 84.5265 101.864 83.6992 100.475C82.8705 99.0875 82.4328 97.4648 82.4359 95.8098V77.7109H83.8622C86.0179 77.7075 88.0852 76.7708 89.6108 75.1074C91.1364 73.4424 91.9931 71.1861 91.9962 68.8315V55.7411H126.901V68.8315C126.904 71.186 127.76 73.4423 129.286 75.1074C130.812 76.7708 132.879 77.7075 135.035 77.7109H136.495V95.8098C136.492 97.468 136.047 99.0908 135.213 100.48C134.38 101.867 133.196 102.96 131.802 103.625L126.657 106.129L112.647 112.959V112.96C110.611 113.946 108.286 113.946 106.25 112.96L92.2399 106.131L87.095 103.625ZM95.7162 111.973L104.859 116.412C107.783 117.816 111.114 117.816 114.038 116.412L123.181 111.973V139.974L109.449 152.458L95.717 139.974L95.7162 111.973ZM92.2398 132.272V136.825L88.7292 133.637V133.639C89.8745 133.109 91.0463 132.653 92.2398 132.272V132.272ZM85.2869 135.46L92.2398 141.757L109.448 157.39L126.656 141.757L133.609 135.46L139.449 138.988L109.448 165.282L79.446 138.988L85.2869 135.46ZM16.5563 227.203L29.455 174.577C30.4871 170.516 32.9656 167.072 36.338 165.015L48.4714 157.693C48.6111 157.959 48.7151 158.225 48.8532 158.452C48.9929 158.679 49.0968 158.984 49.2008 159.287C51.6669 166.164 53.3833 173.334 54.3114 180.648C54.5551 182.166 54.763 183.721 54.9726 185.278C55.2162 187.212 55.4242 189.148 55.6337 191.045C55.8076 192.639 55.9472 194.194 56.1211 195.751C56.2949 197.951 56.5029 200.114 56.6767 202.201C56.7108 202.997 56.7807 203.795 56.8164 204.554C56.8862 205.426 56.9203 206.299 56.9902 207.134C57.06 207.969 57.0942 208.841 57.1299 209.676C57.2338 211.421 57.3378 213.128 57.4077 214.762C57.4775 216.127 57.5116 217.494 57.5815 218.746C57.6156 219.618 57.6156 220.453 57.6513 221.249C57.6855 222.16 57.7212 223.033 57.7553 223.829C57.7894 225.043 57.7894 226.182 57.8251 227.206L16.5563 227.203ZM160.899 182.166C160.759 183.038 160.655 183.873 160.551 184.746C160.377 185.771 160.273 186.795 160.134 187.857C159.856 190.097 159.646 192.373 159.438 194.65C159.23 196.926 159.021 199.127 158.847 201.327C158.743 202.655 158.639 203.946 158.569 205.235C158.465 206.6 158.395 207.928 158.326 209.219C158.152 211.837 158.012 214.341 157.944 216.654C157.84 218.628 157.77 220.525 157.736 222.193C157.702 222.762 157.702 223.294 157.666 223.824C157.632 225.076 157.632 226.214 157.596 227.202L61.2963 227.204C61.2622 226.218 61.2622 225.08 61.2265 223.826C61.1923 223.294 61.1923 222.764 61.1566 222.195C61.1225 220.525 61.0527 218.628 60.9487 216.656C60.8788 214.342 60.7407 211.837 60.5669 209.22C60.497 207.929 60.3931 206.601 60.3232 205.236C60.2534 203.946 60.1494 202.656 60.0454 201.329C59.8716 199.128 59.6636 196.889 59.4541 194.651C59.2461 192.412 59.0366 190.098 58.7588 187.859C58.6191 186.797 58.5151 185.772 58.3413 184.747C58.2373 183.875 58.1333 183.04 57.9937 182.168V182.166C57.3542 177.261 56.4727 172.398 55.3522 167.597C55.1784 166.875 55.0046 166.116 54.7966 165.397L54.795 165.395C53.9725 162.112 52.8907 158.914 51.5623 155.835L76.1752 140.961L109.445 170.137L142.715 140.959L167.328 155.833V155.835C165.999 158.914 164.918 162.112 164.095 165.395C163.887 166.116 163.713 166.875 163.539 167.595L163.538 167.597C162.417 172.397 161.536 177.26 160.896 182.166L160.899 182.166ZM161.177 223.789C161.177 223.334 161.211 222.841 161.211 222.348C161.245 221.362 161.245 220.337 161.315 219.236C161.385 218.135 161.385 217.036 161.454 215.859C161.524 214.683 161.558 213.469 161.628 212.217C161.662 211.61 161.698 210.965 161.732 210.32C161.766 209.561 161.802 208.765 161.872 208.006C161.976 206.412 162.08 204.818 162.185 203.187C162.393 200.114 162.673 196.963 162.985 193.778C163.019 193.588 163.019 193.398 163.054 193.208C163.298 190.666 163.576 188.123 163.924 185.62C164.271 182.774 164.689 179.929 165.174 177.196C165.278 176.437 165.418 175.679 165.556 174.957C165.8 173.592 166.044 172.301 166.321 171.01C166.773 169.076 167.191 167.179 167.678 165.432C167.922 164.56 168.165 163.688 168.443 162.853C168.651 162.246 168.86 161.601 169.068 161.032C169.486 159.817 169.938 158.679 170.389 157.654L182.557 165.016C185.929 167.072 188.408 170.516 189.44 174.578L202.338 227.203H161.074C161.108 226.178 161.108 225.04 161.178 223.788L161.177 223.789Z" fill="#D4CEFF"/>
<path d="M181.302 78.2449C173.161 78.2449 165.352 81.7732 159.596 88.0575C153.838 94.3399 150.605 102.862 150.605 111.748C150.605 120.634 153.838 129.154 159.596 135.439C165.352 141.721 173.161 145.251 181.302 145.251C189.444 145.251 197.251 141.721 203.009 135.439C208.765 129.154 211.999 120.634 211.999 111.748C212.05 102.845 208.833 94.2909 203.065 87.995C197.297 81.7005 189.46 78.1893 181.303 78.2453L181.302 78.2449ZM206.468 100.453V100.452C198.23 95.7072 189.113 93.0681 179.803 92.7342C179.901 89.1178 180.399 85.5286 181.285 82.0426H181.303C186.696 82.0494 191.965 83.8026 196.444 87.0801C200.924 90.3577 204.413 95.0108 206.468 100.452L206.468 100.453ZM168.488 85.4982C171.332 83.85 174.427 82.7745 177.621 82.3239C176.715 86.318 176.269 90.4206 176.296 94.5366C176.331 99.9483 177.216 105.315 178.914 110.401C176.339 113.701 173.376 116.614 170.105 119.071C165.613 109.98 163.284 99.8027 163.328 89.4753C164.901 87.9356 166.633 86.6008 168.487 85.4981L168.488 85.4982ZM159.889 93.3525H159.891C160.453 103.055 162.922 112.51 167.133 121.078C163.973 122.997 160.563 124.378 157.023 125.175C154.658 120.129 153.671 114.447 154.18 108.806C154.689 103.164 156.671 97.8008 159.891 93.3526L159.889 93.3525ZM158.905 128.639H158.907C167.773 126.141 175.685 120.636 181.504 112.917C185.424 113.689 189.231 115.029 192.826 116.904C187.51 126.388 179.907 134.095 170.848 139.18C166.028 136.98 161.885 133.321 158.907 128.636L158.905 128.639ZM181.302 141.457C179.35 141.452 177.404 141.218 175.496 140.759C183.81 135.294 190.805 127.737 195.896 118.718C199.214 120.904 202.181 123.666 204.681 126.898C199.788 135.914 190.903 141.447 181.302 141.457V141.457ZM206.399 123.244H206.398C199.966 115.795 191.468 110.862 182.213 109.206C180.857 105.132 180.067 100.858 179.87 96.5289C189.835 96.8524 199.541 100.074 207.984 105.864C209.064 111.694 208.512 117.744 206.398 123.229L206.399 123.244Z" fill="#D4CEFF"/>
<path d="M1 238.092V170C53.4 192.105 169 218.915 222 205.592V238.092H1Z" fill="white" stroke="#1C116C"/>
<path d="M1 238V170C53.4 192.075 169 218.848 222 205.544V238H1Z" fill="url(#paint2_linear_206_1735)" stroke="#1C116C"/>
<defs>
<linearGradient id="paint0_linear_206_1735" x1="111.5" y1="0" x2="111.5" y2="238" gradientUnits="userSpaceOnUse">
<stop stop-color="#4743D2"/>
<stop offset="1" stop-color="#6C2865"/>
</linearGradient>
<linearGradient id="paint1_linear_206_1735" x1="114.425" y1="18" x2="114.425" y2="256" gradientUnits="userSpaceOnUse">
<stop offset="1" stop-color="#1C116C"/>
</linearGradient>
<linearGradient id="paint2_linear_206_1735" x1="338.5" y1="166.058" x2="1.44631" y2="240.034" gradientUnits="userSpaceOnUse">
<stop offset="0.406591" stop-color="white" stop-opacity="0.62"/>
<stop offset="1" stop-color="#FFBA00"/>
</linearGradient>
</defs>
</svg>
