<svg width="786" height="1023" viewBox="0 0 786 1023" fill="none" xmlns="http://www.w3.org/2000/svg">
<path d="M300.8 334.708C294.727 358.776 294.553 382.608 296.993 400.084C304.615 397.568 312.25 395.372 319.874 393.469M300.8 334.708C304.59 319.68 310.682 304.559 319.874 290.836ZM300.8 334.708C307.573 332.947 316.351 331.423 326.154 330.752ZM419.469 370.158L414.534 383.099ZM419.469 370.158C431.215 371.144 452.119 365.739 472.856 344.801ZM419.469 370.158C408.634 351.626 391.886 341.075 373.891 335.564ZM513.58 273.015C493.832 248.985 463.869 233.401 419.469 237.104C400.778 238.663 384.74 242.698 371.017 248.578M513.58 273.015C509.646 284.931 505.287 295.472 500.648 304.782ZM513.58 273.015C525.2 283.952 534.52 298.218 541.161 313.99ZM414.534 383.099C442.989 383.573 469.318 387 491.699 391.585ZM414.534 383.099C398.642 382.834 382.087 383.49 365.185 385.379ZM319.874 290.836C357.293 285.485 440.277 288.788 472.856 344.801ZM319.874 290.836C331.461 273.534 347.975 258.453 371.017 248.578ZM472.856 344.801C482.465 335.099 492.038 322.063 500.648 304.782ZM500.648 304.782C484.654 283.273 436.338 241.921 371.017 248.578ZM541.161 313.99C535.291 332.111 517.181 373 491.699 391.585ZM541.161 313.99C549.765 334.422 553.873 357.381 552.659 378.906ZM491.699 391.585C507.812 394.887 524.896 399.548 536.113 403.35ZM552.659 378.906C552.088 389.028 549.124 408.371 549.124 406.069C547.152 404.892 541.383 405.137 536.113 403.35M552.659 378.906C548.639 387.543 539.702 404.524 536.113 403.35ZM326.154 330.752C321.967 346.844 314.849 381.917 319.874 393.469ZM326.154 330.752C340.857 329.746 357.868 330.657 373.891 335.564ZM319.874 393.469C335.102 389.67 350.278 387.045 365.185 385.379ZM373.891 335.564C370.391 346.178 363.75 371.001 365.185 385.379Z" fill="url(#paint0_linear_324_1076)"/>
<path d="M300.8 334.708C294.727 358.776 294.553 382.608 296.993 400.084C304.615 397.568 312.25 395.372 319.874 393.469M300.8 334.708C304.59 319.68 310.682 304.559 319.874 290.836M300.8 334.708C307.573 332.947 316.351 331.423 326.154 330.752M319.874 393.469C314.849 381.917 321.967 346.844 326.154 330.752M319.874 393.469C335.102 389.67 350.278 387.045 365.185 385.379M319.874 290.836C357.293 285.485 440.277 288.788 472.856 344.801M319.874 290.836C331.461 273.534 347.975 258.453 371.017 248.578M326.154 330.752C340.857 329.746 357.868 330.657 373.891 335.564M419.469 370.158L414.534 383.099M419.469 370.158C431.215 371.144 452.119 365.739 472.856 344.801M419.469 370.158C408.634 351.626 391.886 341.075 373.891 335.564M414.534 383.099C442.989 383.573 469.318 387 491.699 391.585M414.534 383.099C398.642 382.834 382.087 383.49 365.185 385.379M472.856 344.801C482.465 335.099 492.038 322.063 500.648 304.782M373.891 335.564C370.391 346.178 363.75 371.001 365.185 385.379M513.58 273.015C493.832 248.985 463.869 233.401 419.469 237.104C400.778 238.663 384.74 242.698 371.017 248.578M513.58 273.015C509.646 284.931 505.287 295.472 500.648 304.782M513.58 273.015C525.2 283.952 534.52 298.218 541.161 313.99M371.017 248.578C436.338 241.921 484.654 283.273 500.648 304.782M541.161 313.99C535.291 332.111 517.181 373 491.699 391.585M541.161 313.99C549.765 334.422 553.873 357.381 552.659 378.906M491.699 391.585C507.812 394.887 524.896 399.548 536.113 403.35M552.659 378.906C552.088 389.028 549.124 408.371 549.124 406.069C547.152 404.892 541.383 405.137 536.113 403.35M552.659 378.906C548.639 387.543 539.702 404.524 536.113 403.35" stroke="url(#paint1_linear_324_1076)" stroke-width="8"/>
<path d="M284.431 516.104L222.52 537.282C212.471 597.686 233.736 792.342 284.431 821.347V516.104Z" fill="url(#paint2_linear_324_1076)" stroke="url(#paint3_linear_324_1076)" stroke-width="5"/>
<path d="M538.989 516.564L608.342 537.742C613.277 601.738 608.342 764.257 538.989 821.807V516.564Z" fill="url(#paint4_linear_324_1076)" stroke="url(#paint5_linear_324_1076)" stroke-width="5"/>
<path d="M393.551 902.785C-52.7978 756.5 111.682 384.169 255.886 378.911C257.52 378.851 258.76 377.382 258.677 375.707C257.691 355.864 269.907 322.869 275.948 309.093C276.917 306.882 274.809 304.235 272.512 304.801C-0.772573 372.235 2.13885 820.073 393.551 902.785Z" fill="url(#paint6_linear_324_1076)" stroke="url(#paint7_linear_324_1076)" stroke-width="5"/>
<path d="M152.976 786.295C-83.102 529.394 121.905 289.808 269.086 287.635C270.293 287.617 271.326 286.843 271.755 285.733C279.016 266.952 313.963 228.116 339.965 223.101C29.3811 275.522 -93.758 547.935 152.976 786.295Z" fill="url(#paint8_linear_324_1076)" stroke="url(#paint9_linear_324_1076)" stroke-width="5"/>
<path d="M687.156 371.277C667.717 316.723 596.472 226.676 502.448 220.397C487.68 219.411 558.599 262.886 564.447 289.636C564.76 291.066 565.922 292.213 567.35 292.254C591.102 292.919 620.506 303.721 683.045 373.646C684.948 375.774 688.123 373.99 687.156 371.277Z" fill="url(#paint10_linear_324_1076)" stroke="url(#paint11_linear_324_1076)" stroke-width="5"/>
<path d="M701.643 472.255C681.329 387.169 631.828 330.062 574.033 315.764C562.223 312.842 591.363 351.058 576.822 389.957C575.949 392.294 578.175 394.881 580.516 394.177C622.579 381.508 656.99 398.069 696.837 474.008C698.318 476.831 702.387 475.368 701.643 472.255Z" fill="url(#paint12_linear_324_1076)" stroke="url(#paint13_linear_324_1076)" stroke-width="5"/>
<path d="M206.729 511.563C194.622 523.935 78.4389 651.684 264.243 821.807C47.1012 664.443 171.886 487.974 208.965 442.28C211.006 438.27 213.682 434.736 217.137 431.851C220.385 429.138 216.473 433.029 208.965 442.28C199.829 460.24 203.484 487.732 207.436 509.077C207.609 510.016 207.387 510.889 206.729 511.563Z" fill="#0504B7"/>
<path d="M264.243 821.807C78.4391 651.684 194.622 523.935 206.729 511.563C207.387 510.889 207.609 510.016 207.436 509.077C202.602 482.966 198.211 447.661 217.137 431.851C236.428 415.738 3.14043 632.584 264.243 821.807Z" fill="#E4BA48" stroke="#E4BA48" stroke-width="5"/>
<path d="M466.575 503.673C434.633 488.941 385.074 497.534 364.288 503.673V875.213L413.188 897.772L466.575 870.149V503.673Z" fill="url(#paint14_linear_324_1076)" stroke="url(#paint15_linear_324_1076)" stroke-width="5"/>
<path d="M386.604 253.029C375.539 253.029 358.687 268.272 351.328 276.182C350.229 277.362 351.149 279.149 352.615 278.779C394.088 268.294 440.648 283.825 468.261 325.759C468.906 326.739 470.197 326.734 470.821 325.736C476.589 316.51 481.609 309.646 483.983 303.577C484.226 302.957 484.113 302.234 483.719 301.73C454.008 263.682 402.071 253.029 386.604 253.029Z" fill="url(#paint16_linear_324_1076)" stroke="url(#paint17_linear_324_1076)" stroke-width="5"/>
<path d="M537.807 351.92C538.08 353.426 539.154 381.021 537.254 388.687C537.215 388.845 537.16 388.976 537.085 389.109C536.899 389.441 536.69 389.81 536.464 390.208C531.991 398.082 523.072 400.375 514.831 396.619L512.377 395.5C512.371 395.497 512.361 395.491 512.357 395.486V395.486C512.335 395.463 512.396 395.462 512.415 395.438C520.983 385.076 533.66 367.611 537.723 352.113C537.753 352.001 537.787 351.808 537.807 351.92Z" fill="url(#paint18_linear_324_1076)"/>
<path d="M360.6 347.255C352.897 345.091 342.395 345.337 335.752 346.011C335.107 346.076 334.571 346.511 334.397 347.123C332.066 355.312 329.742 372.327 329.09 381.964C329.016 383.059 330.08 383.87 331.155 383.557C339.365 381.172 347.221 378.776 353.989 379.477C355.024 379.584 355.994 378.827 356.074 377.812C356.603 371.179 359.29 357.112 361.655 349.219C361.904 348.384 361.454 347.495 360.6 347.255Z" fill="url(#paint19_linear_324_1076)" stroke="url(#paint20_linear_324_1076)" stroke-width="5"/>
<path d="M288.043 492.646C278.75 494.215 270.987 492.629 264.754 487.889C258.52 483.148 254.557 475.515 252.865 464.992C251.2 454.642 252.487 446.183 256.728 439.614C260.958 432.987 267.691 428.894 276.927 427.334C281.347 426.588 285.252 426.258 288.641 426.342C290.038 426.345 291.255 426.856 292.292 427.876C293.329 428.895 293.964 430.131 294.198 431.584L294.647 434.375C294.843 435.597 294.516 436.638 293.665 437.498C292.814 438.359 291.799 438.739 290.619 438.64C287.249 438.313 283.892 438.431 280.549 438.996C275.449 439.857 271.74 442.305 269.42 446.34C267.157 450.365 266.569 455.75 267.654 462.495C268.72 469.123 271.078 474.01 274.727 477.157C278.375 480.304 282.749 481.446 287.849 480.584C291.249 480.011 294.493 479.015 297.584 477.597C298.669 477.115 299.75 477.142 300.826 477.677C301.959 478.202 302.623 479.075 302.819 480.296L303.24 482.913C303.473 484.367 303.231 485.752 302.511 487.068C301.848 488.374 300.856 489.258 299.533 489.721C296.292 490.925 292.463 491.9 288.043 492.646Z" fill="url(#paint21_linear_324_1076)"/>
<path d="M318.176 486.134C316.863 486.284 315.668 485.917 314.589 485.031C313.511 484.146 312.899 483.03 312.752 481.683L312.027 475.006C311.881 473.659 312.239 472.433 313.101 471.327C313.963 470.22 315.051 469.592 316.363 469.443L322.869 468.701C324.182 468.551 325.377 468.919 326.456 469.804C327.534 470.689 328.147 471.805 328.293 473.152L329.018 479.829C329.165 481.176 328.807 482.402 327.944 483.509C327.082 484.615 325.995 485.243 324.683 485.393L318.176 486.134Z" fill="url(#paint22_linear_324_1076)"/>
<path d="M411.868 453.103C404.57 450.96 399.265 448.197 395.954 444.816C392.64 441.377 390.912 437.124 390.77 432.058C390.615 426.521 392.359 422.107 396.001 418.816C399.699 415.465 405.049 413.686 412.052 413.481C417.333 413.325 422.143 413.803 426.483 414.914C427.872 415.286 428.986 416.108 429.826 417.379C430.723 418.591 431.192 419.963 431.234 421.495L431.306 424.057C431.339 425.236 430.877 426.163 429.92 426.84C428.961 427.516 427.931 427.664 426.829 427.284C421.901 425.66 417.37 424.909 413.237 425.03C407.956 425.186 405.375 427.384 405.494 431.625C405.595 435.219 407.963 437.713 412.597 439.11C420.588 441.351 426.15 444.077 429.285 447.286C432.478 450.494 434.148 454.777 434.298 460.138C434.653 472.803 427.053 479.364 411.497 479.821C406.56 479.967 402.06 479.303 397.998 477.83C396.605 477.341 395.489 476.459 394.649 475.188C393.865 473.854 393.451 472.393 393.406 470.802L393.327 467.975C393.298 466.914 393.735 466.106 394.638 465.549C395.54 464.933 396.457 464.846 397.388 465.291C401.638 467.288 405.944 468.223 410.306 468.095C413.349 468.006 415.629 467.349 417.145 466.125C418.718 464.841 419.473 463.079 419.41 460.841C419.356 458.897 418.766 457.323 417.64 456.117C416.515 454.913 414.592 453.908 411.868 453.103Z" fill="url(#paint23_linear_324_1076)"/>
<path d="M442.771 480.234C441.45 480.205 440.312 479.679 439.358 478.656C438.402 477.633 437.939 476.444 437.967 475.089L438.108 468.372C438.136 467.018 438.648 465.85 439.645 464.869C440.642 463.89 441.801 463.414 443.121 463.442L449.666 463.586C450.986 463.615 452.125 464.141 453.08 465.164C454.034 466.187 454.498 467.376 454.469 468.731L454.329 475.447C454.302 476.803 453.788 477.97 452.792 478.95C451.795 479.931 450.636 480.406 449.316 480.377L442.771 480.234Z" fill="url(#paint24_linear_324_1076)"/>
<path d="M507.394 491.682C506.086 491.493 505.016 490.834 504.186 489.702C503.355 488.571 503.032 487.335 503.216 485.992L510.612 432.072C510.796 430.73 511.439 429.632 512.542 428.779C513.645 427.926 514.851 427.594 516.158 427.783L521.02 428.482C522.499 428.696 523.779 429.296 524.862 430.285C525.944 431.274 526.673 432.51 527.05 433.992L535.745 468.897C535.737 468.955 535.762 468.988 535.818 468.996C535.875 469.005 535.908 468.98 535.916 468.921L553.664 437.825C554.424 436.506 555.458 435.525 556.765 434.879C558.071 434.235 559.463 434.018 560.941 434.231L566.145 434.98C567.453 435.169 568.522 435.828 569.353 436.96C570.184 438.091 570.507 439.328 570.323 440.67L562.927 494.591C562.743 495.932 562.099 497.03 560.996 497.883C559.893 498.736 558.688 499.068 557.38 498.88L553.286 498.29C551.978 498.102 550.908 497.442 550.078 496.311C549.304 495.187 549.01 493.955 549.193 492.613L553.864 458.563C553.872 458.504 553.848 458.471 553.79 458.462C553.677 458.446 553.616 458.467 553.608 458.526L542.694 477.216C541.933 478.535 540.871 479.513 539.508 480.15C538.201 480.794 536.809 481.011 535.33 480.798L533.113 480.479C531.634 480.266 530.325 479.661 529.186 478.664C528.104 477.675 527.375 476.439 526.998 474.957L521.535 453.907C521.543 453.848 521.49 453.811 521.376 453.795C521.319 453.787 521.287 453.811 521.279 453.87L516.609 487.92C516.424 489.263 515.78 490.36 514.678 491.213C513.631 492.074 512.455 492.41 511.147 492.222L507.394 491.682Z" fill="url(#paint25_linear_324_1076)"/>
<path d="M573.929 506.392C572.629 506.154 571.584 505.454 570.795 504.292C570.006 503.129 569.728 501.881 569.961 500.547L571.115 493.934C571.348 492.6 572.031 491.528 573.164 490.718C574.297 489.907 575.513 489.622 576.814 489.86L583.259 491.041C584.559 491.279 585.603 491.979 586.393 493.141C587.181 494.303 587.46 495.552 587.226 496.886L586.072 503.499C585.839 504.833 585.156 505.905 584.023 506.716C582.89 507.525 581.674 507.811 580.373 507.573L573.929 506.392Z" fill="url(#paint26_linear_324_1076)"/>
<path d="M19.1176 728.347C17.6934 723.741 17.9005 719.686 19.7388 716.181C21.5772 712.677 24.9732 710.118 29.9267 708.505C34.7982 706.919 38.97 706.967 42.4423 708.649C45.9419 710.323 48.3995 713.448 49.815 718.026C50.4923 720.217 50.9323 722.175 51.1349 723.903C51.2339 724.613 51.0748 725.267 50.6577 725.867C50.2406 726.466 49.69 726.877 49.0058 727.1L47.6922 727.528C47.1175 727.715 46.592 727.624 46.116 727.253C45.6399 726.882 45.3835 726.394 45.3467 725.788C45.2622 724.053 44.9638 722.358 44.4514 720.7C43.6698 718.173 42.2229 716.465 40.1107 715.575C38.007 714.715 35.3678 714.802 32.1932 715.836C29.0733 716.851 26.8858 718.398 25.6305 720.477C24.3753 722.555 24.1384 724.858 24.9201 727.385C25.4411 729.07 26.1543 730.646 27.0598 732.114C27.3704 732.63 27.4353 733.182 27.2545 733.765C27.0824 734.378 26.709 734.778 26.1342 734.965L24.9027 735.366C24.2185 735.589 23.5332 735.565 22.8469 735.294C22.1693 735.051 21.6716 734.61 21.3537 733.972C20.5403 732.413 19.795 730.538 19.1176 728.347Z" fill="white"/>
<path d="M27.3682 750.771C27.1261 750.14 27.1426 749.5 27.4177 748.851C27.6929 748.201 28.1377 747.751 28.7521 747.503L54.2361 737.196C54.8505 736.948 55.4743 736.965 56.1073 737.248C56.7404 737.53 57.178 737.986 57.4202 738.617L58.3044 740.919C58.5466 741.55 58.5301 742.19 58.2549 742.84C57.9798 743.49 57.535 743.938 56.9206 744.187L31.4366 754.493C30.8222 754.742 30.1984 754.725 29.5653 754.443C28.9323 754.16 28.4946 753.704 28.2526 753.073L27.3682 750.771Z" fill="white"/>
<path d="M36.1369 773.098C35.0578 770.754 34.9091 768.74 35.6908 767.058C36.4848 765.402 38.4265 763.826 41.516 762.328L51.4856 757.496C52.0827 757.207 52.7062 757.181 53.356 757.421C54.0058 757.659 54.4717 758.085 54.7537 758.699L55.5631 760.456C55.8451 761.07 55.8696 761.71 55.6367 762.376C55.4038 763.043 54.9887 763.521 54.3916 763.811L44.8505 768.435C43.3446 769.164 42.3981 769.868 42.0109 770.545C41.6618 771.235 41.7203 772.086 42.1863 773.099C42.6154 774.032 43.3713 774.708 44.4538 775.128C45.5623 775.536 46.545 775.533 47.4017 775.117L57.3712 770.285C57.9684 769.996 58.5919 769.97 59.2417 770.21C59.8915 770.448 60.3574 770.874 60.6394 771.487L61.5223 773.406C61.8043 774.018 61.8289 774.658 61.596 775.324C61.3631 775.992 60.9481 776.47 60.3509 776.759L44.5398 784.423C43.9427 784.712 43.3192 784.737 42.6694 784.498C42.0196 784.259 41.5537 783.834 41.2717 783.22L40.5175 781.582C40.2232 780.942 40.1796 780.296 40.3865 779.641C40.6317 779.001 41.0598 778.517 41.6705 778.188L41.9821 778.037C42.0081 778.024 42.0149 778.005 42.0027 777.978L41.888 777.936C39.1698 777.136 37.2527 775.522 36.1369 773.098Z" fill="white"/>
<path d="M62.9962 794.827L58.3672 797.561C57.521 798.06 56.9768 798.891 56.7343 800.054C56.492 801.217 56.6572 802.309 57.2299 803.331C57.8885 804.506 58.8716 805.166 60.179 805.312C61.4864 805.458 63.0858 804.972 64.9773 803.856C68.7104 801.652 69.861 799.272 68.4291 796.719C67.8564 795.697 67.0193 795.002 65.9178 794.632C64.8162 794.262 63.8424 794.328 62.9962 794.827ZM48.785 798.016C48.4556 797.429 48.3808 796.794 48.5605 796.109C48.7544 795.451 49.1377 794.953 49.71 794.615L73.4525 780.597C74.025 780.259 74.6373 780.17 75.2894 780.328C75.9559 780.513 76.4539 780.899 76.7832 781.486L77.8356 783.363C78.1649 783.95 78.2326 784.574 78.0386 785.232C77.8589 785.916 77.4828 786.427 76.9105 786.765L68.5484 791.703C68.5234 791.716 68.5181 791.737 68.5325 791.762C68.5468 791.788 68.5736 791.807 68.6128 791.817C71.0902 792.632 72.9161 794.086 74.0901 796.18C75.4217 798.556 75.6103 800.96 74.6557 803.394C73.7011 805.827 71.6061 807.999 68.3708 809.908C65.2101 811.775 62.3257 812.509 59.7177 812.111C57.1345 811.698 55.2057 810.356 53.9315 808.082C52.5711 805.656 52.3608 803.095 53.3004 800.398L53.3321 800.278C53.3178 800.253 53.2982 800.247 53.2733 800.262L52.9747 800.438C52.363 800.765 51.724 800.837 51.0575 800.653C50.4302 800.479 49.9448 800.085 49.6011 799.472L48.785 798.016Z" fill="white"/>
<path d="M89.1826 838.378C87.923 834.704 87.4859 831.685 87.8714 829.32C88.2798 826.939 89.4701 824.986 91.4423 823.462C93.5984 821.795 95.8568 821.247 98.2175 821.82C100.619 822.398 102.874 824.123 104.982 826.994C106.572 829.158 107.773 831.309 108.587 833.448C108.842 834.136 108.838 834.841 108.575 835.56C108.352 836.285 107.943 836.878 107.347 837.34L106.349 838.11C105.891 838.465 105.388 838.54 104.842 838.335C104.296 838.13 103.939 837.742 103.772 837.17C102.991 834.638 101.979 832.525 100.735 830.831C99.1453 828.665 97.5248 828.221 95.8739 829.497C94.4751 830.579 94.1682 832.292 94.9542 834.635C96.3755 838.628 96.9022 841.744 96.5334 843.984C96.1817 846.248 94.9632 848.187 92.8761 849.8C87.9457 853.612 83.1393 852.329 78.4573 845.952C76.9715 843.928 75.9334 841.852 75.3432 839.726C75.135 839.002 75.1622 838.28 75.4248 837.561C75.7276 836.847 76.1886 836.25 76.8078 835.772L77.9086 834.921C78.3213 834.602 78.7692 834.551 79.252 834.768C79.7578 834.967 80.0571 835.326 80.1501 835.844C80.5857 838.201 81.4601 840.272 82.7732 842.062C83.6888 843.308 84.6092 844.073 85.5344 844.353C86.4998 844.64 87.4181 844.446 88.2895 843.773C89.0464 843.188 89.5014 842.485 89.6547 841.666C89.8084 840.846 89.6507 839.75 89.1826 838.378Z" fill="white"/>
<path d="M107.112 859.067L103.116 862.703C102.407 863.348 102.037 864.275 102.008 865.483C102.018 866.695 102.394 867.731 103.137 868.59C104.013 869.604 105.106 870.047 106.415 869.919C107.746 869.772 109.217 868.965 110.829 867.499C114.051 864.567 114.71 861.999 112.805 859.793C112.062 858.934 111.095 858.436 109.903 858.3C108.751 858.166 107.821 858.421 107.112 859.067ZM86.7595 871.619C86.3215 871.112 86.1231 870.504 86.1646 869.798C86.2059 869.091 86.4738 868.511 86.9679 868.062L107.142 849.707C107.636 849.258 108.227 849.054 108.917 849.097C109.606 849.139 110.169 849.414 110.607 849.921L111.75 851.244C112.207 851.773 112.415 852.391 112.374 853.098C112.354 853.786 112.096 854.375 111.598 854.866L111.341 855.101C111.319 855.12 111.319 855.142 111.337 855.164L111.459 855.171C114.268 855.135 116.53 856.11 118.244 858.094C120.016 860.144 120.672 862.46 120.217 865.041C119.78 867.644 118.165 870.216 115.371 872.757C112.664 875.22 109.985 876.516 107.333 876.645C104.7 876.796 102.537 875.89 100.841 873.928C99.2602 872.098 98.5065 869.87 98.5783 867.244C98.581 867.203 98.5729 867.171 98.5541 867.149C98.5344 867.127 98.5146 867.126 98.4931 867.145L91.5967 873.42C91.1024 873.869 90.5111 874.073 89.822 874.031C89.1327 873.988 88.5691 873.713 88.131 873.207L86.7595 871.619Z" fill="white"/>
<path d="M134.272 884.449C134.511 883.174 134.114 882.025 133.079 881.004C132.044 879.983 130.9 879.61 129.646 879.885C128.413 880.181 126.971 881.211 125.319 882.973C123.667 884.737 122.722 886.256 122.483 887.532C122.264 888.829 122.671 889.987 123.706 891.008C124.741 892.029 125.875 892.392 127.108 892.097C128.362 891.821 129.815 890.802 131.466 889.039C133.118 887.276 134.054 885.746 134.272 884.449ZM128.445 898.258C125.603 898.358 122.9 897.141 120.334 894.608C117.767 892.076 116.475 889.352 116.46 886.435C116.445 883.518 117.711 880.699 120.258 877.981C122.806 875.262 125.5 873.853 128.341 873.753C131.181 873.655 133.886 874.871 136.452 877.403C139.018 879.936 140.309 882.661 140.325 885.578C140.34 888.495 139.074 891.313 136.526 894.032C133.98 896.75 131.286 898.16 128.445 898.258Z" fill="white"/>
<path d="M137.949 910.479C137.441 910.046 137.154 909.477 137.09 908.772C137.048 908.086 137.237 907.482 137.659 906.96L148.813 893.141C149.234 892.619 149.778 892.316 150.443 892.231C151.13 892.165 151.729 892.348 152.236 892.78L153.862 894.162C154.37 894.594 154.646 895.154 154.689 895.84C154.752 896.545 154.575 897.159 154.153 897.68L152.999 899.11C152.981 899.133 152.983 899.153 153.004 899.173C153.049 899.21 153.081 899.217 153.099 899.195C155.99 898.477 158.791 899.002 161.502 900.771C162.065 901.135 162.368 901.661 162.41 902.347C162.475 903.052 162.288 903.677 161.848 904.222L161.628 904.494C161.206 905.016 160.653 905.31 159.965 905.376C159.3 905.462 158.683 905.301 158.116 904.896C156.16 903.577 154.254 903.028 152.399 903.248C150.584 903.466 148.998 904.413 147.642 906.093L143.164 911.64C142.742 912.162 142.188 912.456 141.501 912.522C140.836 912.607 140.249 912.434 139.74 912.001L137.949 910.479Z" fill="white"/>
<path d="M168.079 913.337C167.541 912.942 167.208 912.407 167.079 911.732C166.966 911.034 167.101 910.409 167.486 909.858C167.87 909.307 168.403 908.974 169.084 908.858C169.765 908.743 170.375 908.882 170.911 909.277L172.312 910.305C172.499 910.442 172.667 910.404 172.818 910.188L175.927 905.732C176.311 905.181 176.844 904.848 177.525 904.732C178.206 904.616 178.815 904.756 179.352 905.15L181.033 906.385C181.57 906.779 181.895 907.326 182.008 908.025C182.12 908.724 181.984 909.348 181.599 909.9L178.49 914.356C178.341 914.572 178.37 914.756 178.58 914.911L182.012 917.433C182.549 917.827 182.862 918.365 182.952 919.047C183.065 919.746 182.928 920.371 182.544 920.921C182.159 921.473 181.627 921.805 180.946 921.925C180.305 922.035 179.716 921.888 179.179 921.492L175.747 918.972C175.537 918.818 175.357 918.848 175.206 919.064L170.919 925.212C169.866 926.722 169.326 927.772 169.298 928.37C169.294 928.978 169.759 929.632 170.693 930.313C171.183 930.672 171.585 930.939 171.899 931.096C172.463 931.4 172.834 931.851 173.014 932.458C173.193 933.057 173.108 933.609 172.757 934.116L172.556 934.401C172.138 935 171.583 935.396 170.892 935.571C170.202 935.755 169.539 935.663 168.905 935.304C168.114 934.871 167.241 934.3 166.284 933.6C163.903 931.851 162.581 930.101 162.319 928.352C162.097 926.593 162.931 924.356 164.82 921.648L169.533 914.895C169.684 914.68 169.666 914.503 169.479 914.366L168.079 913.337Z" fill="white"/>
<path d="M183.307 944.733C182.747 944.374 182.39 943.849 182.236 943.158C182.082 942.468 182.181 941.832 182.531 941.261L191.822 926.059C192.172 925.488 192.685 925.12 193.358 924.963C194.03 924.798 194.646 924.899 195.206 925.258L197.249 926.575C197.808 926.934 198.165 927.459 198.32 928.149C198.474 928.84 198.375 929.475 198.024 930.046L188.734 945.248C188.383 945.829 187.871 946.197 187.198 946.353C186.525 946.51 185.91 946.409 185.35 946.049L183.307 944.733ZM197.494 921.52C196.935 921.16 196.578 920.633 196.424 919.942C196.269 919.252 196.368 918.619 196.719 918.045L197.085 917.446C197.436 916.871 197.947 916.506 198.62 916.347C199.293 916.189 199.909 916.29 200.468 916.65L202.512 917.965C203.071 918.325 203.429 918.851 203.583 919.541C203.737 920.231 203.639 920.866 203.288 921.437L202.922 922.035C202.571 922.615 202.058 922.974 201.385 923.14C200.713 923.297 200.097 923.195 199.537 922.836L197.494 921.52Z" fill="white"/>
<path d="M202.047 953.453L205.676 934.751C205.798 934.144 206.128 933.711 206.664 933.435C207.225 933.177 207.771 933.205 208.3 933.499L210.571 934.761C211.202 935.111 211.647 935.626 211.907 936.308C212.206 936.98 212.253 937.661 212.05 938.352L207.6 954.53C207.587 954.558 207.592 954.576 207.617 954.595C207.642 954.613 207.662 954.604 207.675 954.576L218.484 941.943C218.939 941.39 219.509 941.059 220.194 940.93C220.918 940.801 221.596 940.912 222.225 941.261L224.345 942.44C224.875 942.744 225.175 943.195 225.244 943.803C225.339 944.42 225.174 944.954 224.749 945.387L211.432 958.683C210.901 959.189 210.268 959.493 209.533 959.585C208.822 959.696 208.152 959.567 207.521 959.217L203.736 957.108C203.081 956.74 202.591 956.215 202.267 955.534C201.968 954.862 201.894 954.171 202.047 953.453Z" fill="white"/>
<path d="M241.37 975.966C240.753 975.726 240.303 975.284 240.021 974.631C239.738 973.986 239.715 973.351 239.95 972.715L249.39 947.274C249.625 946.639 250.058 946.178 250.687 945.884C251.317 945.598 251.941 945.571 252.558 945.81L254.852 946.712C255.55 946.979 256.109 947.421 256.529 948.029C256.95 948.637 257.172 949.318 257.195 950.082L257.655 968.093C257.646 968.121 257.654 968.139 257.681 968.148C257.708 968.158 257.726 968.158 257.736 968.13L269.752 954.99C270.267 954.438 270.877 954.079 271.583 953.913C272.289 953.747 272.991 953.802 273.69 954.069L276.144 955.027C276.762 955.266 277.211 955.718 277.494 956.362C277.777 957.007 277.8 957.651 277.565 958.277L268.125 983.728C267.89 984.354 267.457 984.824 266.827 985.109C266.197 985.395 265.574 985.422 264.957 985.183L263.025 984.428C262.407 984.188 261.958 983.747 261.675 983.093C261.42 982.457 261.41 981.822 261.644 981.196L267.606 965.128C267.616 965.1 267.608 965.082 267.581 965.064C267.527 965.045 267.496 965.054 267.485 965.082L260.143 972.946C259.629 973.498 259.005 973.857 258.272 974.014C257.566 974.18 256.863 974.124 256.166 973.848L255.119 973.443C254.422 973.167 253.849 972.725 253.402 972.108C252.982 971.5 252.759 970.819 252.737 970.054L252.352 959.161C252.362 959.134 252.34 959.115 252.286 959.088C252.259 959.078 252.241 959.088 252.231 959.115L246.269 975.183C246.034 975.818 245.602 976.279 244.972 976.573C244.369 976.868 243.759 976.896 243.141 976.656L241.37 975.966Z" fill="white"/>
<path d="M284.443 991.757C282.008 991.067 280.425 989.87 279.694 988.157C278.99 986.463 279.095 983.921 280.007 980.542L282.951 969.64C283.127 968.986 283.515 968.489 284.116 968.139C284.717 967.789 285.335 967.706 285.972 967.881L287.798 968.406C288.434 968.581 288.923 968.986 289.263 969.603C289.603 970.22 289.685 970.855 289.508 971.5L286.692 981.942C286.247 983.59 286.148 984.778 286.394 985.524C286.675 986.242 287.342 986.757 288.394 987.052C289.362 987.328 290.355 987.181 291.372 986.619C292.396 986.021 293.035 985.257 293.288 984.317L296.232 973.415C296.409 972.761 296.797 972.264 297.398 971.914C297.999 971.564 298.617 971.482 299.253 971.657L301.246 972.227C301.882 972.412 302.37 972.808 302.71 973.424C303.05 974.041 303.132 974.677 302.956 975.33L298.288 992.623C298.111 993.277 297.723 993.774 297.122 994.124C296.521 994.474 295.903 994.557 295.267 994.372L293.565 993.894C292.901 993.7 292.395 993.314 292.047 992.724C291.734 992.117 291.656 991.472 291.813 990.781L291.905 990.441C291.913 990.413 291.903 990.395 291.875 990.385L291.769 990.45C289.403 992.034 286.961 992.476 284.443 991.757Z" fill="white"/>
<path d="M310.881 998.157C310.232 998.028 309.715 997.669 309.327 997.089C308.968 996.509 308.851 995.883 308.974 995.22L312.267 977.596C312.391 976.923 312.725 976.389 313.268 975.994C313.839 975.588 314.449 975.459 315.098 975.588L316.833 975.929C317.509 976.058 318.027 976.417 318.387 976.997C318.779 977.55 318.925 978.185 318.824 978.885L318.8 979.235C318.795 979.272 318.807 979.281 318.835 979.29L318.936 979.216C321.169 977.439 323.568 976.804 326.134 977.31C328.701 977.808 330.407 978.931 331.253 980.653C332.106 982.347 332.197 984.99 331.526 988.581L329.532 999.262C329.408 999.925 329.06 1000.46 328.488 1000.85C327.945 1001.26 327.349 1001.4 326.701 1001.27L324.84 1000.9C324.191 1000.77 323.673 1000.42 323.286 999.833C322.898 999.244 322.766 998.617 322.891 997.954L324.845 987.494C325.17 985.754 325.165 984.529 324.833 983.802C324.507 983.047 323.75 982.55 322.567 982.319C321.58 982.126 320.585 982.365 319.582 983.038C318.613 983.682 318.039 984.492 317.861 985.441L315.785 996.555C315.661 997.218 315.313 997.752 314.741 998.148C314.198 998.553 313.602 998.691 312.954 998.562L310.881 998.157Z" fill="white"/>
<path d="M343.202 1003.71C342.546 1003.63 342.007 1003.3 341.583 1002.75C341.158 1002.19 340.987 1001.57 341.069 1000.9L343.224 983.093C343.305 982.421 343.618 981.868 344.162 981.435C344.707 980.994 345.307 980.819 345.962 980.901L348.356 981.215C349.011 981.297 349.551 981.62 349.976 982.172C350.399 982.734 350.571 983.351 350.49 984.023L348.334 1001.83C348.253 1002.5 347.94 1003.06 347.395 1003.49C346.851 1003.93 346.25 1004.11 345.595 1004.02L343.202 1003.71ZM346.493 976.519C345.838 976.436 345.298 976.113 344.874 975.552C344.449 974.999 344.278 974.382 344.36 973.71L344.445 973.01C344.526 972.338 344.839 971.776 345.384 971.344C345.928 970.911 346.528 970.736 347.183 970.819L349.577 971.123C350.232 971.206 350.772 971.528 351.196 972.089C351.62 972.642 351.792 973.259 351.711 973.931L351.626 974.631C351.544 975.312 351.231 975.865 350.686 976.298C350.142 976.73 349.542 976.905 348.886 976.822L346.493 976.519Z" fill="white"/>
<path d="M369.492 1006.67C365.795 1006.43 363.019 1005.26 361.164 1003.13C359.308 1001 358.5 997.973 358.74 994.032C358.974 990.174 360.099 987.301 362.114 985.386C364.159 983.452 366.958 982.596 370.511 982.826C371.687 982.899 373.24 983.139 375.173 983.526C375.882 983.691 376.435 984.06 376.831 984.649C377.257 985.211 377.447 985.855 377.403 986.592L377.376 987.034C377.339 987.651 377.064 988.13 376.554 988.489C376.044 988.839 375.491 988.931 374.896 988.774C373.734 988.498 372.522 988.314 371.261 988.231C369.628 988.13 368.378 988.581 367.511 989.584C366.675 990.57 366.186 992.2 366.047 994.502C365.904 996.85 366.217 998.571 366.985 999.649C367.784 1000.71 369.085 1001.29 370.892 1001.41C372.238 1001.49 373.449 1001.45 374.524 1001.29C375.134 1001.18 375.657 1001.32 376.092 1001.74C376.556 1002.15 376.77 1002.67 376.732 1003.29L376.705 1003.73C376.66 1004.46 376.391 1005.11 375.897 1005.67C375.404 1006.2 374.81 1006.5 374.116 1006.57C372.523 1006.74 370.982 1006.77 369.492 1006.67Z" fill="white"/>
<path d="M391.096 1006.94C390.436 1006.94 389.862 1006.69 389.374 1006.19C388.886 1005.69 388.643 1005.1 388.644 1004.42L388.665 986.472C388.665 985.8 388.91 985.211 389.399 984.704C389.887 984.207 390.462 983.958 391.122 983.958H393.534C394.195 983.958 394.768 984.216 395.256 984.714C395.743 985.211 395.986 985.809 395.986 986.481L395.966 1004.43C395.965 1005.11 395.72 1005.69 395.232 1006.2C394.743 1006.69 394.168 1006.94 393.508 1006.94H391.096ZM391.127 979.539C390.466 979.539 389.893 979.29 389.405 978.784C388.918 978.286 388.675 977.697 388.675 977.016L388.675 976.307C388.676 975.635 388.921 975.045 389.41 974.539C389.898 974.042 390.473 973.793 391.133 973.793H393.545C394.205 973.793 394.78 974.051 395.268 974.548C395.755 975.045 395.998 975.644 395.997 976.316L395.996 977.025C395.996 977.706 395.751 978.286 395.262 978.793C394.774 979.29 394.199 979.539 393.539 979.539H391.127Z" fill="white"/>
<path d="M413.457 992.154L413.802 997.623C413.863 998.59 414.349 999.456 415.261 1000.23C416.2 1000.96 417.227 1001.29 418.345 1001.21C419.663 1001.13 420.674 1000.51 421.38 999.373C422.082 998.203 422.365 996.518 422.225 994.317C421.947 989.907 420.375 987.798 417.51 987.982C416.393 988.056 415.415 988.535 414.579 989.419C413.77 990.266 413.396 991.178 413.457 992.154ZM410.625 1016.34C409.965 1016.39 409.377 1016.18 408.858 1015.71C408.34 1015.24 408.059 1014.67 408.017 1013.99L406.274 986.38C406.231 985.708 406.437 985.1 406.893 984.576C407.348 984.041 407.906 983.747 408.565 983.71L410.284 983.59C410.971 983.544 411.575 983.756 412.094 984.226C412.611 984.668 412.905 985.238 412.978 985.938L413.001 986.288C413.003 986.316 413.018 986.334 413.047 986.334L413.127 986.242C414.823 983.94 416.96 982.706 419.539 982.531C422.204 982.356 424.39 983.25 426.096 985.202C427.83 987.154 428.818 990.036 429.058 993.857C429.292 997.568 428.646 1000.53 427.117 1002.76C425.617 1004.98 423.593 1006.19 421.043 1006.35C418.664 1006.51 416.488 1005.75 414.512 1004.09C414.481 1004.06 414.452 1004.04 414.423 1004.04C414.394 1004.05 414.381 1004.06 414.384 1004.1L414.978 1013.53C415.022 1014.21 414.815 1014.81 414.359 1015.35C413.904 1015.87 413.346 1016.17 412.688 1016.2L410.625 1016.34Z" fill="white"/>
<path d="M448.154 992.292C444.687 992.798 443.107 994.152 443.414 996.334C443.525 997.126 443.84 997.715 444.36 998.12C444.877 998.488 445.519 998.617 446.286 998.507C447.65 998.304 448.697 997.696 449.426 996.702C450.152 995.671 450.41 994.409 450.201 992.918L450.127 992.393C450.09 992.135 449.944 992.024 449.688 992.061L448.154 992.292ZM444.904 1003.84C442.942 1004.13 441.233 1003.73 439.773 1002.64C438.339 1001.51 437.476 999.907 437.185 997.844C436.439 992.531 439.903 989.308 447.576 988.176L449.11 987.945C449.366 987.909 449.477 987.77 449.445 987.54L449.414 987.319C449.258 986.214 448.862 985.45 448.224 985.045C447.614 984.631 446.655 984.52 445.348 984.713C443.615 984.962 441.579 985.551 439.241 986.463C438.661 986.665 438.103 986.61 437.566 986.306C437.058 985.993 436.761 985.533 436.675 984.925L436.663 984.833C436.56 984.106 436.681 983.415 437.026 982.771C437.394 982.089 437.912 981.638 438.577 981.426C441.008 980.561 443.134 979.99 444.952 979.723C448.675 979.17 451.4 979.465 453.127 980.607C454.882 981.748 455.984 983.912 456.43 987.089L458.09 998.903C458.184 999.566 458.025 1000.19 457.611 1000.75C457.198 1001.32 456.664 1001.66 456.011 1001.75L454.434 1001.99C453.752 1002.09 453.136 1001.94 452.587 1001.55C452.034 1001.12 451.695 1000.56 451.568 999.86L451.501 999.382C451.496 999.354 451.48 999.345 451.452 999.345C451.395 999.354 451.369 999.372 451.372 999.4C449.902 1001.94 447.746 1003.42 444.904 1003.84Z" fill="white"/>
<path d="M472.102 998.636C471.456 998.774 470.844 998.645 470.265 998.258C469.687 997.872 469.331 997.347 469.195 996.684L463.572 969.171C463.437 968.508 463.558 967.881 463.936 967.292C464.312 966.694 464.825 966.325 465.471 966.187L467.832 965.681C468.478 965.543 469.09 965.672 469.668 966.058C470.246 966.445 470.602 966.97 470.738 967.633L476.361 995.146C476.496 995.809 476.375 996.435 475.997 997.024C475.621 997.623 475.108 997.982 474.462 998.129L472.102 998.636Z" fill="white"/>
<path d="M510.019 975.008C506.223 975.036 503.298 974.483 501.244 973.342C499.182 972.172 497.768 970.386 497.002 967.973C496.165 965.34 496.393 962.974 497.687 960.865C498.999 958.72 501.32 957.09 504.65 955.976C507.161 955.138 509.534 954.668 511.768 954.567C512.485 954.548 513.133 954.778 513.711 955.267C514.308 955.718 514.721 956.307 514.953 957.034L515.34 958.25C515.519 958.812 515.425 959.327 515.059 959.788C514.693 960.257 514.219 960.478 513.638 960.451C511.051 960.386 508.774 960.681 506.808 961.344C504.298 962.182 503.362 963.609 504.004 965.625C504.546 967.338 506.026 968.194 508.441 968.185C512.582 968.102 515.625 968.6 517.57 969.686C519.543 970.763 520.935 972.577 521.745 975.128C523.659 981.15 520.918 985.395 513.52 987.872C511.173 988.654 508.923 988.995 506.772 988.875C506.037 988.848 505.38 988.581 504.802 988.093C504.242 987.568 503.842 986.933 503.603 986.168L503.174 984.824C503.015 984.327 503.113 983.876 503.469 983.47C503.817 983.047 504.245 982.872 504.753 982.955C507.066 983.295 509.26 983.121 511.334 982.421C512.781 981.942 513.784 981.288 514.343 980.487C514.921 979.64 515.04 978.682 514.702 977.623C514.407 976.693 513.908 976.03 513.202 975.616C512.496 975.202 511.436 974.999 510.019 975.008Z" fill="white"/>
<path d="M540.565 977.789C538.233 978.784 536.267 978.848 534.666 977.964C533.09 977.071 531.646 975.008 530.331 971.776L526.088 961.335C525.834 960.708 525.839 960.064 526.101 959.41C526.364 958.756 526.8 958.296 527.41 958.038L529.159 957.292C529.768 957.025 530.392 957.034 531.03 957.301C531.669 957.568 532.115 958.02 532.369 958.646L536.429 968.636C537.071 970.22 537.711 971.224 538.352 971.647C539.008 972.034 539.84 972.016 540.846 971.583C541.774 971.187 542.467 970.441 542.926 969.355C543.375 968.24 543.416 967.228 543.052 966.334L538.809 955.893C538.555 955.266 538.559 954.622 538.822 953.968C539.084 953.314 539.52 952.854 540.13 952.596L542.038 951.777C542.648 951.519 543.272 951.519 543.91 951.795C544.548 952.062 544.994 952.504 545.249 953.13L551.978 969.695C552.232 970.321 552.227 970.966 551.964 971.62C551.702 972.273 551.266 972.734 550.656 972.992L549.027 973.691C548.39 973.959 547.759 973.977 547.132 973.738C546.52 973.452 546.067 972.992 545.776 972.347L545.643 972.025C545.632 971.997 545.613 971.988 545.587 971.997L545.541 972.117C544.635 974.861 542.977 976.758 540.565 977.789Z" fill="white"/>
<path d="M572.132 962.918C568.832 964.64 565.857 965.073 563.205 964.207C560.553 963.351 558.354 961.159 556.608 957.642C554.9 954.198 554.441 951.132 555.23 948.434C556.031 945.709 558.019 943.508 561.19 941.85C562.239 941.298 563.693 940.69 565.549 940.018C566.241 939.788 566.903 939.825 567.534 940.119C568.178 940.377 568.663 940.838 568.989 941.491L569.185 941.887C569.459 942.44 569.462 943.001 569.197 943.563C568.931 944.134 568.504 944.502 567.914 944.686C566.775 945.046 565.642 945.524 564.516 946.114C563.058 946.878 562.205 947.918 561.958 949.235C561.723 950.515 562.115 952.182 563.131 954.226C564.174 956.325 565.294 957.642 566.492 958.176C567.704 958.664 569.115 958.489 570.727 957.651C571.929 957.016 572.951 956.353 573.793 955.644C574.265 955.239 574.791 955.091 575.37 955.22C575.974 955.331 576.413 955.662 576.687 956.215L576.883 956.611C577.208 957.265 577.297 957.964 577.148 958.701C576.987 959.419 576.625 959.99 576.062 960.414C574.773 961.38 573.463 962.218 572.132 962.918Z" fill="white"/>
<path d="M586.722 932.744C585.617 933.425 584.961 934.245 584.754 935.203C584.531 936.133 584.771 937.366 585.472 938.895C585.592 939.097 585.737 939.143 585.909 939.033L592.133 935.166C592.354 935.028 592.397 934.843 592.263 934.613C590.632 932.081 588.784 931.455 586.722 932.744ZM597.268 948.453C593.929 950.534 590.838 951.27 587.994 950.663C585.175 950.036 582.782 948.066 580.817 944.733C578.866 941.436 578.175 938.416 578.744 935.69C579.322 932.919 581.133 930.58 584.178 928.693C590.021 925.055 594.927 926.483 598.895 932.965C599.253 933.573 599.325 934.236 599.112 934.954C598.908 935.635 598.511 936.151 597.922 936.519L588.09 942.642C587.844 942.79 587.813 942.965 587.996 943.167C589.011 944.429 590.115 945.101 591.307 945.184C592.509 945.23 593.957 944.723 595.651 943.674C596.755 942.983 597.849 942.081 598.932 940.957C599.374 940.515 599.887 940.331 600.474 940.414C601.085 940.479 601.546 940.783 601.859 941.307L601.904 941.381C602.276 942.016 602.422 942.716 602.342 943.49C602.271 944.217 601.971 944.825 601.442 945.285C600.181 946.455 598.79 947.504 597.268 948.453Z" fill="white"/>
<path d="M615.886 922.643C613.038 924.733 612.24 926.676 613.494 928.471C613.945 929.125 614.491 929.503 615.132 929.613C615.757 929.696 616.384 929.503 617.015 929.042C618.135 928.223 618.795 927.192 618.994 925.958C619.176 924.696 618.84 923.462 617.988 922.238L617.687 921.805C617.537 921.593 617.356 921.556 617.146 921.713L615.886 922.643ZM618.182 934.438C616.57 935.617 614.873 936.068 613.086 935.792C611.307 935.46 609.824 934.447 608.637 932.753C605.595 928.389 607.225 923.895 613.529 919.264L614.789 918.337C614.999 918.183 615.038 918.009 614.904 917.818L614.779 917.638C614.143 916.728 613.451 916.241 612.7 916.176C611.972 916.095 611.071 916.449 609.997 917.238C608.573 918.284 607.027 919.764 605.361 921.676C604.937 922.136 604.419 922.348 603.804 922.33C603.214 922.293 602.743 922.026 602.392 921.519L602.342 921.446C601.924 920.847 601.723 920.183 601.739 919.446C601.761 918.669 602.019 918.026 602.512 917.519C604.282 915.602 605.915 914.094 607.409 912.997C610.467 910.75 613.02 909.726 615.066 909.926C617.136 910.108 619.081 911.505 620.903 914.116L627.672 923.821C628.057 924.374 628.193 925 628.08 925.691C627.967 926.39 627.643 926.943 627.106 927.339L625.81 928.287C625.25 928.702 624.638 928.858 623.973 928.766C623.292 928.646 622.739 928.315 622.315 927.753L622.039 927.357C622.022 927.339 622.002 927.33 621.979 927.348C621.932 927.385 621.917 927.413 621.934 927.44C621.767 930.387 620.517 932.716 618.182 934.438Z" fill="white"/>
<path d="M638.991 914.77L623.379 904.43C622.879 904.092 622.603 903.617 622.555 903.006C622.528 902.375 622.746 901.862 623.209 901.465L625.191 899.764C625.742 899.292 626.374 899.057 627.087 899.059C627.804 899.02 628.438 899.224 628.99 899.673L642.016 909.87C642.034 909.893 642.054 909.894 642.077 909.875C642.098 909.857 642.1 909.836 642.082 909.813L634.607 894.852C634.275 894.215 634.18 893.548 634.323 892.85C634.468 892.11 634.816 891.504 635.367 891.031L637.217 889.444C637.68 889.047 638.2 888.927 638.777 889.085C639.377 889.223 639.794 889.575 640.031 890.141L647.185 907.739C647.45 908.432 647.49 909.148 647.304 909.883C647.14 910.601 646.782 911.196 646.232 911.668L642.927 914.503C642.355 914.995 641.699 915.269 640.96 915.327C640.244 915.366 639.587 915.181 638.991 914.77Z" fill="white"/>
<path d="M659.768 884.816C657.257 887.322 656.752 889.367 658.253 890.951C658.794 891.522 659.389 891.812 660.039 891.821C660.669 891.809 661.261 891.526 661.817 890.971C662.805 889.985 663.308 888.866 663.325 887.617C663.321 886.346 662.809 885.171 661.789 884.094L661.428 883.714C661.248 883.524 661.065 883.521 660.88 883.706L659.768 884.816ZM663.757 896.125C662.338 897.542 660.724 898.248 658.916 898.244C657.11 898.197 655.496 897.424 654.075 895.924C650.431 892.08 651.388 887.384 656.945 881.837L658.057 880.728C658.243 880.543 658.255 880.366 658.095 880.197L657.945 880.039C657.184 879.236 656.427 878.861 655.676 878.913C654.944 878.944 654.105 879.432 653.158 880.377C651.903 881.63 650.591 883.33 649.222 885.478C648.869 885.994 648.388 886.289 647.778 886.364C647.188 886.418 646.683 886.224 646.262 885.78L646.203 885.716C645.702 885.189 645.406 884.559 645.315 883.829C645.223 883.056 645.385 882.381 645.798 881.804C647.27 879.636 648.663 877.896 649.982 876.581C652.678 873.89 655.052 872.485 657.104 872.369C659.177 872.232 661.305 873.314 663.486 875.617L671.595 884.171C672.055 884.657 672.28 885.254 672.27 885.963C672.261 886.671 672.019 887.261 671.546 887.734L670.404 888.874C669.91 889.367 669.327 889.62 668.657 889.631C667.967 889.62 667.371 889.373 666.871 888.887L666.54 888.538C666.52 888.516 666.5 888.516 666.479 888.537C666.438 888.578 666.427 888.609 666.448 888.631C666.713 891.572 665.815 894.07 663.757 896.125Z" fill="white"/>
<path d="M686.012 856.587C685.595 857.112 685.042 857.41 684.356 857.482C683.687 857.532 683.097 857.342 682.586 856.914L682.118 856.523C681.606 856.094 681.306 855.54 681.217 854.858C681.147 854.153 681.321 853.538 681.739 853.013L688.105 844.995C688.522 844.47 689.065 844.183 689.734 844.134C690.42 844.062 691.02 844.24 691.531 844.668L691.999 845.06C692.511 845.488 692.802 846.054 692.872 846.759C692.96 847.441 692.795 848.044 692.378 848.57L686.012 856.587Z" fill="white"/>
<path d="M720.11 821.965L692.818 814.824C692.225 814.684 691.814 814.33 691.586 813.764C691.373 813.172 691.427 812.615 691.749 812.092L693.291 809.589C693.674 808.966 694.214 808.532 694.909 808.285C695.58 808.024 696.252 808.006 696.927 808.235L718.545 815.408C718.569 815.423 718.589 815.419 718.605 815.394C718.62 815.369 718.616 815.349 718.591 815.333L703.094 798.222C702.604 797.695 702.329 797.064 702.273 796.33C702.191 795.58 702.342 794.893 702.725 794.271L704.175 791.917C704.497 791.394 704.957 791.117 705.553 791.086C706.165 791.03 706.661 791.246 707.038 791.735L725.035 813.97C725.51 814.523 725.769 815.178 725.811 815.937C725.867 816.672 725.697 817.362 725.298 818.01L723.779 820.476C723.395 821.099 722.861 821.554 722.175 821.84C721.504 822.103 720.816 822.144 720.11 821.965Z" fill="white"/>
<path d="M727.254 780.534C725.993 780.656 725.03 781.369 724.365 782.675C723.7 783.981 723.672 785.213 724.281 786.37C724.903 787.502 726.27 788.634 728.382 789.767C730.494 790.901 732.181 791.406 733.441 791.285C734.715 791.136 735.684 790.41 736.35 789.104C737.015 787.798 737.037 786.58 736.414 785.448C735.805 784.29 734.444 783.145 732.332 782.012C730.221 780.879 728.528 780.386 727.254 780.534ZM741.804 782.404C742.692 785.175 742.312 788.18 740.663 791.418C739.013 794.656 736.827 796.691 734.102 797.524C731.378 798.356 728.387 797.9 725.13 796.152C721.873 794.405 719.8 792.146 718.911 789.375C718.023 786.604 718.402 783.6 720.052 780.361C721.701 777.124 723.888 775.088 726.612 774.255C729.337 773.423 732.328 773.88 735.585 775.627C738.842 777.374 740.914 779.634 741.804 782.404Z" fill="white"/>
<path d="M750.974 768.583C750.706 769.203 750.251 769.64 749.607 769.895C748.963 770.15 748.339 770.14 747.736 769.866L722.69 758.481C722.087 758.207 721.661 757.739 721.412 757.078C721.163 756.418 721.173 755.777 721.441 755.157L722.418 752.895C722.685 752.275 723.141 751.838 723.784 751.583C724.428 751.328 725.052 751.337 725.656 751.611L750.701 762.996C751.304 763.27 751.73 763.738 751.98 764.399C752.228 765.06 752.218 765.7 751.951 766.32L750.974 768.583Z" fill="white"/>
<path d="M743.793 737.382C743.346 738.626 743.331 739.689 743.749 740.569C744.14 741.439 745.073 742.249 746.549 742.995C746.765 743.077 746.907 743.021 746.977 742.828L749.496 735.82C749.586 735.571 749.509 735.401 749.267 735.309C746.453 734.369 744.628 735.06 743.793 737.382ZM761.581 742.939C760.229 746.699 758.256 749.249 755.662 750.592C753.078 751.906 750.008 751.889 746.453 750.543C742.924 749.207 740.553 747.289 739.34 744.788C738.111 742.25 738.112 739.267 739.344 735.839C741.71 729.26 746.414 727.241 753.457 729.782C754.104 730.027 754.562 730.498 754.831 731.197C755.083 731.858 755.09 732.52 754.851 733.183L750.871 744.255C750.771 744.531 750.853 744.688 751.116 744.725C752.676 745.064 753.949 744.887 754.933 744.192C755.901 743.459 756.727 742.138 757.414 740.231C757.86 738.987 758.167 737.579 758.334 736.009C758.408 735.378 758.699 734.907 759.209 734.598C759.728 734.261 760.27 734.199 760.836 734.413L760.917 734.444C761.59 734.699 762.13 735.154 762.537 735.81C762.927 736.429 763.056 737.091 762.925 737.795C762.645 739.511 762.197 741.226 761.581 742.939Z" fill="white"/>
<path d="M768.363 720.686C768.174 721.337 767.777 721.829 767.169 722.166C766.562 722.503 765.942 722.574 765.309 722.381L748.553 717.251C747.92 717.057 747.439 716.649 747.112 716.025C746.783 715.402 746.713 714.766 746.903 714.117L747.592 711.745C747.781 711.095 748.179 710.602 748.786 710.265C749.394 709.928 750.014 709.857 750.646 710.05L767.402 715.181C768.035 715.374 768.516 715.783 768.843 716.407C769.172 717.029 769.242 717.665 769.053 718.315L768.363 720.686ZM742.775 712.852C742.587 713.502 742.189 713.995 741.581 714.332C740.974 714.669 740.354 714.74 739.721 714.547L739.061 714.344C738.428 714.151 737.947 713.742 737.619 713.118C737.291 712.496 737.221 711.86 737.41 711.21L738.1 708.839C738.288 708.189 738.687 707.696 739.294 707.359C739.901 707.022 740.521 706.951 741.154 707.144L741.814 707.347C742.447 707.54 742.928 707.949 743.255 708.572C743.584 709.195 743.654 709.831 743.464 710.481L742.775 712.852Z" fill="white"/>
<path d="M408.756 529.75C405.741 528.768 403.564 527.552 402.224 526.104C400.884 524.631 400.214 522.838 400.214 520.726C400.214 518.418 400.992 516.601 402.547 515.275C404.126 513.925 406.376 513.25 409.294 513.25C411.495 513.25 413.494 513.507 415.288 514.023C415.862 514.195 416.317 514.551 416.652 515.091C417.011 515.607 417.19 516.184 417.19 516.822V517.89C417.19 518.381 416.987 518.762 416.58 519.032C416.174 519.302 415.743 519.352 415.288 519.18C413.254 518.443 411.376 518.075 409.653 518.075C407.452 518.075 406.351 518.959 406.351 520.726C406.351 522.225 407.309 523.293 409.223 523.931C412.524 524.962 414.81 526.166 416.078 527.54C417.37 528.915 418.016 530.72 418.016 532.955C418.016 538.233 414.774 540.873 408.289 540.873C406.232 540.873 404.366 540.542 402.69 539.879C402.116 539.658 401.661 539.278 401.327 538.737C401.015 538.173 400.86 537.559 400.86 536.896V535.717C400.86 535.275 401.051 534.943 401.434 534.722C401.817 534.477 402.2 534.453 402.583 534.649C404.33 535.533 406.112 535.975 407.931 535.975C409.198 535.975 410.156 535.729 410.802 535.238C411.472 534.723 411.807 533.998 411.807 533.065C411.807 532.255 411.58 531.592 411.125 531.076C410.67 530.561 409.88 530.119 408.756 529.75ZM420.851 585.071C420.851 591.824 417.502 595.2 410.802 595.2C404.102 595.2 400.752 591.824 400.752 585.071V570.044C400.752 569.48 400.956 568.988 401.363 568.571C401.769 568.154 402.248 567.945 402.798 567.945H404.88C405.43 567.945 405.909 568.154 406.315 568.571C406.722 568.988 406.926 569.48 406.926 570.044V585.513C406.926 587.183 407.237 588.374 407.859 589.086C408.481 589.798 409.485 590.154 410.874 590.154C412.262 590.154 413.267 589.798 413.888 589.086C414.51 588.374 414.821 587.183 414.821 585.513V570.044C414.821 569.48 415.025 568.988 415.432 568.571C415.838 568.154 416.317 567.945 416.867 567.945H418.805C419.355 567.945 419.834 568.154 420.241 568.571C420.647 568.988 420.851 569.48 420.851 570.044V585.071ZM412.13 649.527C408.206 649.527 405.119 648.336 402.87 645.954C400.621 643.572 399.496 640.16 399.496 635.715C399.496 631.344 400.585 627.955 402.762 625.549C404.94 623.119 407.978 621.903 411.878 621.903C413.745 621.903 415.371 622.038 416.76 622.308C417.334 622.407 417.8 622.701 418.159 623.192C418.518 623.683 418.698 624.235 418.698 624.85V626.028C418.698 626.544 418.494 626.949 418.087 627.244C417.681 627.538 417.238 627.624 416.76 627.501C415.396 627.133 414.008 626.949 412.596 626.949C410.443 626.949 408.756 627.698 407.536 629.196C406.34 630.694 405.741 632.867 405.741 635.715C405.741 638.514 406.387 640.687 407.679 642.234C408.971 643.781 410.694 644.555 412.847 644.555C414.283 644.555 415.683 644.37 417.047 644.002C417.525 643.88 417.968 643.965 418.375 644.26C418.805 644.555 419.021 644.96 419.021 645.475V646.58C419.021 647.194 418.83 647.747 418.446 648.238C418.087 648.729 417.621 649.023 417.047 649.122C415.635 649.392 413.996 649.527 412.13 649.527ZM403.121 703.485C402.571 703.485 402.092 703.276 401.686 702.859C401.302 702.442 401.111 701.95 401.111 701.386V678.698C401.111 678.133 401.302 677.641 401.686 677.224C402.092 676.807 402.571 676.598 403.121 676.598H415.826C416.376 676.598 416.843 676.807 417.226 677.224C417.633 677.641 417.836 678.133 417.836 678.698V679.545C417.836 680.109 417.633 680.601 417.226 681.018C416.843 681.435 416.376 681.644 415.826 681.644H407.5C407.309 681.644 407.213 681.743 407.213 681.939V686.801C407.213 687.022 407.309 687.132 407.5 687.132H415.109C415.659 687.132 416.125 687.341 416.508 687.758C416.915 688.175 417.118 688.667 417.118 689.231V689.784C417.118 690.348 416.915 690.84 416.508 691.257C416.125 691.674 415.659 691.883 415.109 691.883H407.5C407.309 691.883 407.213 691.982 407.213 692.178V698.145C407.213 698.341 407.309 698.439 407.5 698.439H415.826C416.376 698.439 416.843 698.648 417.226 699.065C417.633 699.483 417.836 699.974 417.836 700.539V701.386C417.836 701.95 417.633 702.442 417.226 702.859C416.843 703.276 416.376 703.485 415.826 703.485H403.121ZM410.443 736.376L407.823 746.947C407.799 747.02 407.811 747.094 407.859 747.168C407.93 747.216 408.002 747.241 408.074 747.241H412.883C412.955 747.241 413.015 747.216 413.063 747.168C413.135 747.094 413.159 747.02 413.135 746.947L410.515 736.376C410.515 736.351 410.503 736.339 410.479 736.339C410.455 736.339 410.443 736.351 410.443 736.376ZM400.86 757.812C400.358 757.812 399.951 757.603 399.64 757.186C399.353 756.769 399.293 756.314 399.46 755.823L406.71 732.914C406.901 732.325 407.237 731.846 407.715 731.477C408.218 731.109 408.768 730.925 409.366 730.925H411.735C412.357 730.925 412.919 731.109 413.422 731.477C413.924 731.846 414.259 732.325 414.427 732.914L421.641 755.823C421.808 756.314 421.737 756.769 421.425 757.186C421.138 757.603 420.743 757.812 420.241 757.812H417.836C417.238 757.812 416.699 757.628 416.221 757.26C415.743 756.866 415.432 756.376 415.288 755.786L414.427 752.287C414.402 752.091 414.283 751.993 414.068 751.993H406.89C406.699 751.993 406.578 752.091 406.531 752.287L405.669 755.786C405.526 756.376 405.214 756.866 404.736 757.26C404.258 757.628 403.72 757.812 403.121 757.812H400.86ZM406.71 810.15L399.46 787.241C399.293 786.75 399.353 786.295 399.64 785.878C399.951 785.461 400.358 785.252 400.86 785.252H403.265C403.863 785.252 404.402 785.448 404.88 785.841C405.358 786.209 405.669 786.688 405.813 787.277L410.515 806.098C410.515 806.123 410.526 806.135 410.55 806.135C410.575 806.135 410.586 806.123 410.586 806.098L415.432 787.277C415.575 786.688 415.887 786.209 416.365 785.841C416.843 785.448 417.381 785.252 417.98 785.252H420.241C420.743 785.252 421.138 785.461 421.425 785.878C421.737 786.295 421.808 786.75 421.641 787.241L414.391 810.15C414.223 810.739 413.888 811.218 413.386 811.586C412.908 811.955 412.357 812.139 411.735 812.139H409.366C408.768 812.139 408.218 811.955 407.715 811.586C407.237 811.218 406.901 810.739 406.71 810.15ZM410.443 845.029L407.823 855.6C407.799 855.674 407.811 855.747 407.859 855.821C407.93 855.87 408.002 855.895 408.074 855.895H412.883C412.955 855.895 413.015 855.87 413.063 855.821C413.135 855.747 413.159 855.674 413.135 855.6L410.515 845.029C410.515 845.005 410.503 844.993 410.479 844.993C410.455 844.993 410.443 845.005 410.443 845.029ZM400.86 866.465C400.358 866.465 399.951 866.256 399.64 865.839C399.353 865.422 399.293 864.967 399.46 864.477L406.71 841.567C406.901 840.978 407.237 840.499 407.715 840.131C408.218 839.763 408.768 839.578 409.366 839.578H411.735C412.357 839.578 412.919 839.763 413.422 840.131C413.924 840.499 414.259 840.978 414.427 841.567L421.641 864.477C421.808 864.967 421.737 865.422 421.425 865.839C421.138 866.256 420.743 866.465 420.241 866.465H417.836C417.238 866.465 416.699 866.281 416.221 865.913C415.743 865.52 415.432 865.029 415.288 864.44L414.427 860.941C414.402 860.745 414.283 860.646 414.068 860.646H406.89C406.699 860.646 406.578 860.745 406.531 860.941L405.669 864.44C405.526 865.029 405.214 865.52 404.736 865.913C404.258 866.281 403.72 866.465 403.121 866.465H400.86Z" fill="url(#paint27_linear_324_1076)"/>
<path d="M611.144 534.848C633.038 501.331 620.267 452.437 611.144 432.179C435.64 348.203 276.018 397.189 218.144 432.179C191.944 463.118 218.144 534.848 218.144 534.848M611.144 534.848C616.528 588.254 611.144 741.105 559.103 806.021C555.588 812.587 549.432 819.555 541.496 826.649M611.144 534.848C594.204 527.381 570.311 519.144 541.496 512.218M218.144 534.848C218.144 534.848 218.144 753.996 267.494 806.021M218.144 534.848L288.469 510.714M267.494 806.021C272.691 814.307 281.036 823.905 288.469 830.144M267.494 806.021L288.469 830.144M288.469 510.714C288.469 510.714 288.469 705.399 288.469 830.144M288.469 510.714C288.469 510.714 336.382 500.832 359.801 498.649M288.469 830.144C307.642 847.499 333.717 863.345 359.801 876.726M359.801 498.649V876.726M359.801 498.649C398.922 495.002 436.656 496.089 471.061 499.923M359.801 876.726C378.472 886.305 397.148 894.62 413.299 901.323C428.324 894.818 449.438 884.82 471.061 873.113M471.061 499.923V873.113M471.061 499.923C496.647 502.774 520.392 507.145 541.496 512.218M471.061 873.113C497.026 859.055 523.724 842.536 541.496 826.649M541.496 512.218V826.649" stroke="url(#paint28_linear_324_1076)" stroke-width="9"/>
<defs>
<linearGradient id="paint0_linear_324_1076" x1="424.196" y1="236.561" x2="424.196" y2="406.258" gradientUnits="userSpaceOnUse">
<stop stop-color="#0504B7"/>
<stop offset="1" stop-color="#D3D3EC"/>
</linearGradient>
<linearGradient id="paint1_linear_324_1076" x1="424.196" y1="236.561" x2="424.196" y2="406.258" gradientUnits="userSpaceOnUse">
<stop offset="0.494792" stop-color="#0504B7"/>
<stop offset="1" stop-color="white"/>
</linearGradient>
<linearGradient id="paint2_linear_324_1076" x1="252.263" y1="516.104" x2="252.263" y2="821.347" gradientUnits="userSpaceOnUse">
<stop offset="0.120897" stop-color="#0504B7"/>
<stop offset="1" stop-color="#A7A6EB"/>
</linearGradient>
<linearGradient id="paint3_linear_324_1076" x1="252.263" y1="516.104" x2="252.263" y2="821.347" gradientUnits="userSpaceOnUse">
<stop stop-color="#0504B7"/>
<stop offset="1" stop-color="white"/>
</linearGradient>
<linearGradient id="paint4_linear_324_1076" x1="574.362" y1="516.564" x2="574.362" y2="821.807" gradientUnits="userSpaceOnUse">
<stop stop-color="#0504B7"/>
<stop offset="1" stop-color="#A7A6EB"/>
</linearGradient>
<linearGradient id="paint5_linear_324_1076" x1="574.362" y1="516.564" x2="574.362" y2="821.807" gradientUnits="userSpaceOnUse">
<stop stop-color="#0504B7"/>
<stop offset="1" stop-color="white"/>
</linearGradient>
<linearGradient id="paint6_linear_324_1076" x1="237.572" y1="304.723" x2="237.572" y2="902.785" gradientUnits="userSpaceOnUse">
<stop offset="0.354167" stop-color="white"/>
<stop offset="1" stop-color="#BDBDBD"/>
</linearGradient>
<linearGradient id="paint7_linear_324_1076" x1="237.572" y1="304.723" x2="237.572" y2="902.785" gradientUnits="userSpaceOnUse">
<stop stop-color="white"/>
<stop offset="0.296875" stop-color="white"/>
<stop offset="1" stop-color="#BDBDBD"/>
</linearGradient>
<linearGradient id="paint8_linear_324_1076" x1="180.862" y1="223.101" x2="180.862" y2="786.295" gradientUnits="userSpaceOnUse">
<stop stop-color="#1B1D49"/>
<stop offset="1" stop-color="white"/>
</linearGradient>
<linearGradient id="paint9_linear_324_1076" x1="180.862" y1="223.101" x2="180.862" y2="786.295" gradientUnits="userSpaceOnUse">
<stop stop-color="#1B1D49"/>
<stop offset="1" stop-color="white"/>
</linearGradient>
<linearGradient id="paint10_linear_324_1076" x1="593.882" y1="220.38" x2="593.882" y2="374.586" gradientUnits="userSpaceOnUse">
<stop stop-color="#1B1D49"/>
<stop offset="1" stop-color="white"/>
</linearGradient>
<linearGradient id="paint11_linear_324_1076" x1="593.882" y1="220.38" x2="593.882" y2="374.586" gradientUnits="userSpaceOnUse">
<stop stop-color="#1B1D49"/>
<stop offset="1" stop-color="white"/>
</linearGradient>
<linearGradient id="paint12_linear_324_1076" x1="636.437" y1="315.606" x2="636.437" y2="475.515" gradientUnits="userSpaceOnUse">
<stop stop-color="white"/>
<stop offset="1" stop-color="#BDBDBD"/>
</linearGradient>
<linearGradient id="paint13_linear_324_1076" x1="636.437" y1="315.606" x2="636.437" y2="475.515" gradientUnits="userSpaceOnUse">
<stop stop-color="white"/>
<stop offset="1" stop-color="#BDBDBD"/>
</linearGradient>
<linearGradient id="paint14_linear_324_1076" x1="415.431" y1="495.539" x2="415.431" y2="897.772" gradientUnits="userSpaceOnUse">
<stop stop-color="#0504B7"/>
<stop offset="1" stop-color="#A7A6EB"/>
</linearGradient>
<linearGradient id="paint15_linear_324_1076" x1="415.431" y1="495.539" x2="415.431" y2="897.772" gradientUnits="userSpaceOnUse">
<stop stop-color="#0504B7"/>
<stop offset="1" stop-color="white"/>
</linearGradient>
<linearGradient id="paint16_linear_324_1076" x1="417.477" y1="253.029" x2="417.477" y2="326.489" gradientUnits="userSpaceOnUse">
<stop stop-color="#E4BA48"/>
<stop offset="1" stop-color="white"/>
</linearGradient>
<linearGradient id="paint17_linear_324_1076" x1="417.477" y1="253.029" x2="417.477" y2="326.489" gradientUnits="userSpaceOnUse">
<stop stop-color="#E4BA48"/>
<stop offset="1" stop-color="white"/>
</linearGradient>
<linearGradient id="paint18_linear_324_1076" x1="528.519" y1="351.074" x2="524.012" y2="402.572" gradientUnits="userSpaceOnUse">
<stop stop-color="white"/>
<stop offset="1" stop-color="#9E9E9E"/>
</linearGradient>
<linearGradient id="paint19_linear_324_1076" x1="345.405" y1="345.535" x2="345.405" y2="383.625" gradientUnits="userSpaceOnUse">
<stop stop-color="#0504B7"/>
<stop offset="1" stop-color="#D3D3EC"/>
</linearGradient>
<linearGradient id="paint20_linear_324_1076" x1="345.405" y1="345.535" x2="345.405" y2="383.625" gradientUnits="userSpaceOnUse">
<stop stop-color="#0504B7"/>
<stop offset="1" stop-color="#D8D8D8"/>
</linearGradient>
<linearGradient id="paint21_linear_324_1076" x1="277.743" y1="426.329" x2="277.743" y2="493.231" gradientUnits="userSpaceOnUse">
<stop offset="0.75" stop-color="#0504B7"/>
<stop offset="1" stop-color="#A7A6EB"/>
</linearGradient>
<linearGradient id="paint22_linear_324_1076" x1="320.523" y1="468.668" x2="320.523" y2="486.167" gradientUnits="userSpaceOnUse">
<stop offset="0.75" stop-color="#0504B7"/>
<stop offset="1" stop-color="#A7A6EB"/>
</linearGradient>
<linearGradient id="paint23_linear_324_1076" x1="412.535" y1="413.452" x2="412.535" y2="479.841" gradientUnits="userSpaceOnUse">
<stop offset="0.75" stop-color="#0504B7"/>
<stop offset="1" stop-color="#A7A6EB"/>
</linearGradient>
<linearGradient id="paint24_linear_324_1076" x1="446.218" y1="463.441" x2="446.218" y2="480.379" gradientUnits="userSpaceOnUse">
<stop offset="0.75" stop-color="#0504B7"/>
<stop offset="1" stop-color="#A7A6EB"/>
</linearGradient>
<linearGradient id="paint25_linear_324_1076" x1="536.77" y1="427.731" x2="536.77" y2="498.931" gradientUnits="userSpaceOnUse">
<stop offset="0.75" stop-color="#0504B7"/>
<stop offset="1" stop-color="#A7A6EB"/>
</linearGradient>
<linearGradient id="paint26_linear_324_1076" x1="578.594" y1="489.779" x2="578.594" y2="507.654" gradientUnits="userSpaceOnUse">
<stop offset="0.75" stop-color="#0504B7"/>
<stop offset="1" stop-color="#A7A6EB"/>
</linearGradient>
<linearGradient id="paint27_linear_324_1076" x1="410.548" y1="513.25" x2="410.548" y2="866.465" gradientUnits="userSpaceOnUse">
<stop offset="0.447917" stop-color="#EAEAEA"/>
<stop offset="1" stop-color="white"/>
</linearGradient>
<linearGradient id="paint28_linear_324_1076" x1="414.866" y1="385.812" x2="414.866" y2="901.323" gradientUnits="userSpaceOnUse">
<stop stop-color="#0504B7"/>
<stop offset="0.239583" stop-color="#0504B7"/>
<stop offset="1" stop-color="#A7A6EB"/>
</linearGradient>
</defs>
</svg>
