<svg width="877" height="848" viewBox="0 0 877 848" preserveAspectRatio="none" fill="none" xmlns="http://www.w3.org/2000/svg">
<path d="M329.819 151.963C323.04 177.361 322.846 202.508 325.57 220.949C334.079 218.293 342.604 215.976 351.115 213.969M329.819 151.963C334.053 136.105 340.854 120.15 351.115 105.669M329.819 151.963C337.382 150.105 347.182 148.497 358.127 147.789M462.31 189.371L456.8 203.026M462.31 189.371C475.424 190.411 498.762 184.707 521.914 162.613M462.31 189.371C450.213 169.815 431.514 158.682 411.424 152.867M567.381 86.8642C545.332 61.5072 511.881 45.0641 462.31 48.9706C441.441 50.6152 423.536 54.8729 408.215 61.0785M567.381 86.8642C562.989 99.4378 558.122 110.562 552.943 120.385M567.381 86.8642C580.354 98.405 590.759 113.459 598.174 130.102M456.8 203.026C488.569 203.526 517.964 207.142 542.951 211.981M456.8 203.026C439.057 202.746 420.574 203.438 401.704 205.432M351.115 105.669C392.893 100.023 485.541 103.508 521.914 162.613M351.115 105.669C364.052 87.4122 382.489 71.499 408.215 61.0785M521.914 162.613C532.642 152.376 543.33 138.62 552.943 120.385M552.943 120.385C535.087 97.689 481.143 54.0528 408.215 61.0785M598.174 130.102C591.621 149.223 571.401 192.37 542.951 211.981M598.174 130.102C607.78 151.661 612.366 175.888 611.011 198.601M542.951 211.981C560.941 215.465 580.015 220.383 592.538 224.396M611.011 198.601C610.373 209.283 607.064 229.694 607.064 227.265C604.863 226.022 598.421 226.281 592.538 224.396M611.011 198.601C606.523 207.716 596.545 225.635 592.538 224.396M358.127 147.789C353.453 164.77 345.505 201.778 351.115 213.969M358.127 147.789C374.542 146.727 393.535 147.689 411.424 152.867M351.115 213.969C368.117 209.96 385.06 207.19 401.704 205.432M411.424 152.867C407.516 164.067 400.101 190.26 401.704 205.432" stroke="#0504B7" stroke-width="8"/>
<path d="M311.546 343.374L242.425 365.722C231.205 429.46 254.947 634.863 311.546 665.469V343.374Z" fill="#0504B7" stroke="#0504B7" stroke-width="5"/>
<path d="M595.749 343.86L673.18 366.208C678.689 433.736 673.179 605.228 595.749 665.955L595.749 343.86Z" fill="#0504B7" stroke="#0504B7" stroke-width="5"/>
<path d="M455.298 761.175C-43.0237 606.816 140.594 213.94 301.59 208.377C303.416 208.314 304.801 206.71 304.71 204.885C303.668 184.031 317.142 149.533 323.905 134.905C325.015 132.506 322.665 129.592 320.09 130.193C15.0513 201.407 18.3356 673.903 455.298 761.175Z" fill="#0504B7" stroke="#0504B7" stroke-width="5"/>
<path d="M199.85 655.267C-59.4342 376.697 165.748 116.904 327.389 114.571C328.705 114.552 329.83 113.702 330.311 112.477C338.314 92.1009 376.668 50.0322 405.21 44.5983C64.1123 101.439 -71.1246 396.814 199.85 655.267Z" fill="#0504B7" stroke="#0504B7" stroke-width="5"/>
<path d="M745.654 205.238C723.936 147.668 644.402 52.6806 539.445 46.0557C522.977 45.0163 601.948 90.7815 608.641 119.016C609.011 120.577 610.341 121.837 611.959 121.881C638.469 122.597 671.301 134.03 741.081 207.773C743.24 210.054 746.755 208.157 745.654 205.238Z" fill="#0504B7" stroke="#0504B7" stroke-width="5"/>
<path d="M763.842 302.979C741.158 213.211 685.895 152.96 621.377 137.875C608.215 134.797 640.61 174.976 624.576 215.947C623.589 218.47 626.12 221.323 628.755 220.576C675.648 207.285 714.032 224.8 758.468 304.83C760.157 307.872 764.69 306.335 763.842 302.979Z" fill="#0504B7" stroke="#0504B7" stroke-width="5"/>
<path d="M224.745 338.63C210.969 351.959 81.8104 486.654 289.006 665.955C46.5763 499.903 185.894 313.691 227.292 265.474C229.569 261.244 232.558 257.514 236.414 254.47C240.04 251.607 235.673 255.713 227.292 265.474C217.103 284.402 221.162 313.362 225.566 335.874C225.77 336.914 225.506 337.893 224.745 338.63Z" fill="#0504B7"/>
<path d="M289.006 665.955C81.8104 486.654 210.969 351.959 224.745 338.63C225.506 337.893 225.77 336.914 225.566 335.874C220.177 308.33 215.306 271.134 236.414 254.47C257.951 237.466 -2.50438 466.285 289.006 665.955Z" stroke="#0504B7" stroke-width="5"/>
<path d="M676.308 363.153C700.751 327.786 686.492 276.192 676.308 254.816C480.364 166.204 302.152 217.894 237.539 254.816C208.288 287.463 237.539 363.153 237.539 363.153M676.308 363.153C682.318 419.507 676.308 580.798 618.206 649.298C614.281 656.226 607.408 663.579 598.549 671.064M676.308 363.153C657.395 355.273 630.719 346.582 598.549 339.274M237.539 363.153C237.539 363.153 237.539 594.401 292.636 649.298M237.539 363.153L316.054 337.686M292.636 649.298C298.438 658.041 307.755 668.168 316.054 674.752M292.636 649.298L316.054 674.752M316.054 337.686C316.054 337.686 316.054 543.119 316.054 674.752M316.054 337.686C316.054 337.686 369.546 327.259 395.693 324.955M316.054 674.752C337.459 693.065 366.572 709.786 395.693 723.906M395.693 324.955V723.906M395.693 324.955C439.37 321.107 481.499 322.254 519.911 326.3M395.693 723.906C416.539 734.013 437.389 742.788 455.421 749.861C472.196 742.998 495.769 732.446 519.911 720.093M519.911 326.3V720.093M519.911 326.3C548.476 329.308 574.986 333.92 598.549 339.274M519.911 720.093C548.9 705.26 578.707 687.828 598.549 671.064M598.549 339.274V671.064" stroke="#0504B7" stroke-width="9"/>
<path d="M514.902 330.257C479.24 314.711 423.909 323.78 400.702 330.257V722.309L455.298 746.114L514.902 716.965V330.257Z" fill="#0504B7" stroke="#0504B7" stroke-width="5"/>
<path d="M416.73 68.4031C402.561 68.4031 381.01 84.7118 371.483 93.2755C370.045 94.5676 371.201 96.5699 373.092 96.1698C426.421 84.8863 486.276 101.659 521.77 146.904C522.598 147.961 524.217 147.954 525.019 146.878C532.423 136.94 538.871 129.541 541.939 123.001C542.268 122.3 542.118 121.476 541.59 120.909C503.374 79.8888 436.615 68.4032 416.73 68.4031Z" fill="#0504B7" stroke="#0504B7" stroke-width="5"/>
<path d="M597.618 151.46C598.334 153.468 604.19 186.815 602.123 196.363C602.078 196.569 602.002 196.743 601.89 196.922C598.423 202.45 589.533 216.067 589.533 214.633L560.983 207.346C560.933 207.322 560.943 207.314 561.007 207.32C573.98 193.766 592.898 171.071 597.495 151.698C597.53 151.55 597.567 151.317 597.618 151.46Z" fill="#0504B7"/>
<path d="M589.533 214.633C589.533 216.067 598.423 202.45 601.89 196.922C602.002 196.743 602.078 196.569 602.123 196.363C604.19 186.815 598.334 153.468 597.618 151.46C597.567 151.317 597.53 151.55 597.495 151.698C592.895 171.083 573.956 193.795 560.983 207.346M589.533 214.633C583.021 212.852 559.981 206.86 560.983 207.346M589.533 214.633L560.983 207.346" stroke="#0504B7" stroke-width="5"/>
<path d="M396.799 158.667C387.374 156.054 374.541 156.354 366.424 157.17C365.64 157.248 364.985 157.784 364.768 158.542C361.923 168.464 359.087 189.018 358.286 200.703C358.192 202.063 359.48 203.076 360.79 202.698C370.85 199.802 380.474 196.892 388.765 197.748C390.024 197.878 391.201 196.936 391.303 195.675C391.958 187.633 395.221 170.707 398.101 161.143C398.418 160.09 397.859 158.961 396.799 158.667Z" fill="#0504B7" stroke="#0504B7" stroke-width="5"/>
<path d="M315.649 326.387C305.276 327.991 296.58 326.195 289.56 320.999C282.541 315.804 278.028 307.502 276.024 296.092C274.052 284.872 275.402 275.729 280.072 268.662C284.731 261.532 292.215 257.17 302.525 255.576C307.458 254.814 311.82 254.496 315.61 254.622C317.173 254.639 318.539 255.205 319.709 256.319C320.879 257.433 321.603 258.778 321.88 260.354L322.412 263.38C322.644 264.703 322.289 265.827 321.347 266.749C320.405 267.672 319.273 268.073 317.953 267.954C314.182 267.565 310.43 267.66 306.698 268.236C301.006 269.116 296.885 271.728 294.335 276.072C291.848 280.406 291.247 286.229 292.532 293.541C293.794 300.727 296.482 306.041 300.595 309.484C304.709 312.928 309.611 314.209 315.304 313.329C319.099 312.743 322.716 311.698 326.155 310.195C327.364 309.685 328.573 309.724 329.781 310.315C331.053 310.895 331.805 311.847 332.037 313.171L332.536 316.007C332.813 317.583 332.556 319.08 331.765 320.497C331.038 321.904 329.938 322.851 328.464 323.338C324.854 324.608 320.583 325.625 315.649 326.387Z" fill="#0504B7"/>
<path d="M348.944 319.824C347.48 319.977 346.143 319.57 344.933 318.602C343.723 317.635 343.031 316.42 342.857 314.959L341.998 307.713C341.824 306.252 342.214 304.924 343.168 303.731C344.122 302.537 345.331 301.864 346.795 301.711L354.052 300.954C355.516 300.801 356.853 301.208 358.063 302.176C359.274 303.143 359.966 304.358 360.139 305.82L360.999 313.065C361.172 314.527 360.782 315.854 359.828 317.048C358.874 318.241 357.665 318.914 356.201 319.067L348.944 319.824Z" fill="#0504B7"/>
<path d="M452.919 284.535C444.78 282.193 438.861 279.183 435.163 275.505C431.463 271.763 429.529 267.142 429.361 261.64C429.177 255.627 431.111 250.837 435.164 247.271C439.279 243.639 445.239 241.718 453.044 241.508C458.93 241.35 464.293 241.878 469.132 243.092C470.681 243.498 471.925 244.393 472.864 245.776C473.864 247.094 474.39 248.584 474.441 250.248L474.526 253.03C474.565 254.31 474.052 255.316 472.986 256.049C471.92 256.782 470.772 256.941 469.543 256.526C464.046 254.753 458.995 253.928 454.388 254.052C448.502 254.211 445.63 256.593 445.771 261.199C445.89 265.101 448.534 267.815 453.703 269.34C462.614 271.789 468.82 274.76 472.32 278.251C475.885 281.74 477.756 286.395 477.934 292.217C478.355 305.97 469.896 313.08 452.558 313.547C447.056 313.695 442.04 312.965 437.508 311.359C435.955 310.824 434.71 309.865 433.771 308.482C432.894 307.033 432.429 305.445 432.377 303.718L432.283 300.647C432.247 299.496 432.733 298.619 433.739 298.015C434.743 297.348 435.765 297.257 436.804 297.741C441.545 299.918 446.346 300.941 451.208 300.81C454.599 300.719 457.139 300.011 458.827 298.685C460.577 297.293 461.415 295.382 461.341 292.951C461.276 290.84 460.615 289.129 459.359 287.819C458.102 286.508 455.956 285.413 452.919 284.535Z" fill="#0504B7"/>
<path d="M487.155 313.914C485.683 313.885 484.416 313.315 483.353 312.205C482.29 311.096 481.775 309.805 481.809 308.334L481.975 301.04C482.009 299.568 482.582 298.299 483.694 297.233C484.807 296.167 486.099 295.649 487.571 295.679L494.865 295.825C496.337 295.855 497.604 296.424 498.667 297.534C499.73 298.643 500.245 299.934 500.211 301.406L500.045 308.7C500.011 310.171 499.438 311.44 498.326 312.506C497.213 313.572 495.921 314.09 494.449 314.06L487.155 313.914Z" fill="#0504B7"/>
<path d="M558.54 325.418C557.081 325.225 555.893 324.52 554.975 323.302C554.058 322.084 553.708 320.747 553.926 319.291L562.689 260.808C562.908 259.352 563.637 258.157 564.877 257.224C566.116 256.29 567.466 255.919 568.925 256.112L574.351 256.827C576 257.044 577.425 257.684 578.625 258.745C579.824 259.807 580.628 261.139 581.035 262.742L590.424 300.479C590.414 300.542 590.441 300.578 590.505 300.587C590.568 300.595 590.605 300.568 590.614 300.504L610.73 266.656C611.592 265.221 612.755 264.148 614.221 263.438C615.686 262.727 617.243 262.481 618.893 262.698L624.699 263.463C626.158 263.656 627.347 264.361 628.264 265.579C629.182 266.797 629.531 268.134 629.313 269.59L620.55 328.073C620.332 329.529 619.603 330.724 618.363 331.658C617.123 332.591 615.773 332.962 614.314 332.77L609.745 332.167C608.286 331.975 607.098 331.27 606.18 330.052C605.326 328.842 605.008 327.509 605.226 326.053L610.76 289.122C610.77 289.058 610.743 289.023 610.679 289.014C610.553 288.997 610.484 289.021 610.475 289.084L598.109 309.431C597.246 310.866 596.051 311.935 594.522 312.637C593.057 313.348 591.5 313.594 589.85 313.377L587.375 313.051C585.726 312.833 584.269 312.189 583.006 311.119C581.806 310.057 581.003 308.725 580.596 307.123L574.688 284.367C574.698 284.303 574.639 284.263 574.512 284.247C574.449 284.238 574.412 284.266 574.403 284.329L568.869 321.261C568.651 322.717 567.922 323.911 566.682 324.845C565.505 325.787 564.188 326.162 562.728 325.97L558.54 325.418Z" fill="#0504B7"/>
<path d="M632.604 340.335C631.153 340.091 629.992 339.345 629.123 338.096C628.254 336.848 627.957 335.5 628.233 334.054L629.599 326.887C629.875 325.441 630.651 324.274 631.928 323.385C633.204 322.496 634.569 322.174 636.02 322.417L643.216 323.624C644.668 323.868 645.828 324.614 646.697 325.862C647.567 327.111 647.863 328.458 647.588 329.904L646.221 337.071C645.946 338.517 645.169 339.685 643.893 340.573C642.616 341.462 641.252 341.785 639.8 341.541L632.604 340.335Z" fill="#0504B7"/>
<path d="M21.44 537.918C19.8082 532.93 20.008 528.55 22.0394 524.778C24.0708 521.006 27.8544 518.268 33.3901 516.565C38.8341 514.889 43.5075 514.974 47.4102 516.819C51.3435 518.655 54.121 522.052 55.7428 527.009C56.5189 529.381 57.0273 531.501 57.268 533.369C57.3844 534.136 57.2114 534.842 56.749 535.487C56.2866 536.131 55.673 536.571 54.9084 536.806L53.4404 537.258C52.7981 537.456 52.2089 537.353 51.6727 536.949C51.1366 536.545 50.8455 536.015 50.7994 535.36C50.691 533.485 50.3433 531.65 49.7563 529.856C48.8608 527.119 47.2265 525.261 44.8534 524.285C42.4903 523.338 39.5348 523.411 35.987 524.503C32.5004 525.576 30.0624 527.23 28.6729 529.465C27.2833 531.701 27.0363 534.187 27.9318 536.924C28.5288 538.749 29.3403 540.458 30.3662 542.05C30.7181 542.611 30.7951 543.207 30.5972 543.837C30.4093 544.497 29.9942 544.926 29.352 545.124L27.9757 545.547C27.2111 545.783 26.4433 545.751 25.6724 545.453C24.9115 545.185 24.3505 544.705 23.9893 544.013C23.0659 542.322 22.2161 540.29 21.44 537.918Z" fill="#0504B7"/>
<path d="M30.5076 561.32C30.2305 560.638 30.2437 559.948 30.5471 559.25C30.8504 558.552 31.3459 558.071 32.0333 557.808L60.5491 546.909C61.2366 546.646 61.9368 546.669 62.6497 546.979C63.3627 547.289 63.8576 547.785 64.1347 548.466L65.1465 550.957C65.4236 551.639 65.4104 552.329 65.1071 553.027C64.8037 553.725 64.3083 554.206 63.6208 554.468L35.105 565.368C34.4175 565.631 33.7173 565.608 33.0044 565.298C32.2915 564.988 31.7965 564.492 31.5194 563.81L30.5076 561.32Z" fill="#0504B7"/>
<path d="M40.2729 584.985C39.04 582.453 38.8562 580.285 39.7214 578.482C40.6005 576.707 42.7712 575.026 46.2332 573.44L57.4048 568.323C58.0739 568.016 58.7749 567.994 59.5076 568.257C60.2404 568.519 60.7678 568.981 61.09 569.643L62.0147 571.542C62.3369 572.204 62.3698 572.892 62.1134 573.608C61.8569 574.324 61.3942 574.835 60.725 575.141L50.0335 580.039C48.3461 580.812 47.2874 581.561 46.8575 582.285C46.4707 583.026 46.5435 583.942 47.0759 585.036C47.5662 586.043 48.4218 586.777 49.6427 587.238C50.8926 587.686 51.9976 587.69 52.9577 587.25L64.1293 582.132C64.7985 581.826 65.4994 581.804 66.2321 582.066C66.9649 582.329 67.4923 582.791 67.8146 583.453L68.8232 585.524C69.1455 586.186 69.1784 586.875 68.9219 587.59C68.6655 588.306 68.2027 588.817 67.5336 589.124L49.8161 597.24C49.147 597.546 48.4461 597.568 47.7133 597.306C46.9806 597.043 46.4531 596.581 46.1309 595.919L45.2693 594.15C44.9331 593.459 44.8786 592.763 45.106 592.061C45.3764 591.374 45.8537 590.856 46.5379 590.507L46.887 590.348C46.9161 590.334 46.9237 590.313 46.9097 590.284L46.7804 590.238C43.7169 589.354 41.5477 587.603 40.2729 584.985Z" fill="#0504B7"/>
<path d="M70.2591 607.909L65.0616 610.809C64.1115 611.339 63.5041 612.228 63.2394 613.475C62.9747 614.721 63.1689 615.895 63.8219 616.996C64.5729 618.262 65.6857 618.978 67.1604 619.144C68.6351 619.31 70.4343 618.801 72.558 617.616C76.7496 615.277 78.0291 612.731 76.3965 609.979C75.7435 608.878 74.7949 608.125 73.5506 607.721C72.3064 607.316 71.2092 607.379 70.2591 607.909ZM54.2646 611.23C53.8891 610.597 53.8001 609.914 53.9976 609.181C54.2114 608.475 54.6397 607.943 55.2824 607.584L81.9406 592.708C82.5833 592.35 83.2728 592.258 84.009 592.433C84.7616 592.636 85.3256 593.054 85.7011 593.687L86.9011 595.71C87.2765 596.343 87.3574 597.012 87.1435 597.718C86.946 598.45 86.5259 598.996 85.8832 599.355L76.4942 604.594C76.4662 604.61 76.4604 604.631 76.4767 604.659C76.4931 604.687 76.5234 604.706 76.5676 604.718C79.366 605.611 81.4345 607.186 82.7732 609.443C84.2915 612.002 84.5216 614.585 83.4634 617.19C82.4053 619.795 80.0599 622.111 76.4272 624.139C72.8783 626.119 69.6327 626.886 66.6902 626.44C63.7756 625.978 61.5919 624.523 60.1389 622.073C58.588 619.459 58.3322 616.707 59.3715 613.82L59.4064 613.69C59.39 613.663 59.3679 613.657 59.34 613.672L59.0046 613.86C58.3177 614.206 57.5979 614.278 56.8453 614.075C56.137 613.885 55.5869 613.459 55.1951 612.798L54.2646 611.23Z" fill="#0504B7"/>
<path d="M99.4246 653.966C97.9847 650.026 97.4773 646.792 97.9024 644.263C98.3534 641.715 99.6898 639.629 101.912 638.005C104.34 636.231 106.89 635.655 109.562 636.278C112.278 636.907 114.834 638.764 117.229 641.847C119.035 644.172 120.402 646.48 121.332 648.772C121.622 649.511 121.621 650.265 121.327 651.034C121.079 651.81 120.619 652.443 119.947 652.934L118.823 653.755C118.307 654.133 117.739 654.21 117.121 653.988C116.504 653.767 116.099 653.349 115.906 652.737C115.013 650.023 113.86 647.756 112.446 645.936C110.64 643.611 108.807 643.128 106.947 644.487C105.371 645.639 105.032 647.471 105.931 649.984C107.555 654.264 108.163 657.603 107.757 660C107.37 662.422 106.001 664.492 103.65 666.21C98.0947 670.269 92.6574 668.874 87.3377 662.025C85.6495 659.852 84.4672 657.626 83.7907 655.347C83.5521 654.571 83.5796 653.798 83.8732 653.029C84.2123 652.266 84.7306 651.63 85.4282 651.12L86.6684 650.214C87.1334 649.874 87.6393 649.821 88.1859 650.056C88.7583 650.271 89.0982 650.657 89.2056 651.212C89.7085 653.737 90.7058 655.959 92.1977 657.88C93.2381 659.219 94.2817 660.041 95.3284 660.346C96.4206 660.657 97.4576 660.454 98.4394 659.737C99.2921 659.114 99.8032 658.364 99.9728 657.487C100.142 656.61 99.9597 655.437 99.4246 653.966Z" fill="#0504B7"/>
<path d="M119.362 675.798L114.849 679.678C114.049 680.367 113.633 681.357 113.601 682.65C113.615 683.946 114.043 685.054 114.885 685.975C115.878 687.062 117.115 687.538 118.596 687.404C120.101 687.249 121.763 686.389 123.583 684.824C127.222 681.694 127.962 678.948 125.803 676.586C124.961 675.665 123.866 675.131 122.517 674.983C121.215 674.837 120.163 675.109 119.362 675.798ZM96.3658 689.182C95.8692 688.639 95.6437 687.989 95.6891 687.233C95.7345 686.477 96.0363 685.858 96.5943 685.379L119.377 665.787C119.935 665.307 120.604 665.091 121.383 665.137C122.163 665.184 122.801 665.479 123.297 666.023L124.593 667.44C125.111 668.007 125.347 668.668 125.302 669.424C125.281 670.16 124.99 670.79 124.429 671.314L124.138 671.564C124.114 671.585 124.112 671.607 124.134 671.631L124.271 671.639C127.449 671.607 130.009 672.654 131.952 674.779C133.96 676.976 134.708 679.454 134.197 682.214C133.708 684.997 131.886 687.745 128.732 690.457C125.675 693.086 122.647 694.466 119.648 694.599C116.67 694.755 114.221 693.782 112.299 691.679C110.507 689.719 109.65 687.335 109.726 684.527C109.729 684.482 109.719 684.448 109.698 684.425C109.676 684.401 109.653 684.4 109.629 684.421L101.841 691.118C101.283 691.598 100.614 691.814 99.8344 691.768C99.0549 691.721 98.4169 691.426 97.9203 690.883L96.3658 689.182Z" fill="#0504B7"/>
<path d="M149.724 702.678C149.996 701.313 149.547 700.085 148.377 698.994C147.207 697.903 145.912 697.505 144.494 697.8C143.099 698.117 141.466 699.219 139.596 701.105C137.726 702.992 136.656 704.617 136.384 705.982C136.135 707.368 136.596 708.607 137.766 709.698C138.936 710.79 140.219 711.177 141.614 710.86C143.033 710.564 144.677 709.474 146.547 707.587C148.417 705.701 149.476 704.065 149.724 702.678ZM143.122 717.448C139.908 717.556 136.85 716.257 133.948 713.551C131.046 710.844 129.587 707.932 129.572 704.812C129.557 701.693 130.991 698.678 133.874 695.769C136.758 692.86 139.807 691.352 143.021 691.244C146.235 691.137 149.293 692.436 152.195 695.142C155.097 697.848 156.556 700.761 156.571 703.881C156.587 707 155.153 710.014 152.269 712.923C149.385 715.832 146.337 717.341 143.122 717.448Z" fill="#0504B7"/>
<path d="M153.501 730.338C152.928 729.877 152.605 729.269 152.535 728.515C152.489 727.78 152.705 727.133 153.183 726.574L165.84 711.755C166.318 711.195 166.933 710.869 167.685 710.776C168.463 710.703 169.138 710.897 169.712 711.358L171.545 712.831C172.119 713.292 172.429 713.89 172.475 714.624C172.545 715.379 172.342 716.036 171.864 716.596L170.554 718.128C170.534 718.153 170.536 718.175 170.561 718.195C170.611 718.235 170.646 718.243 170.667 718.219C173.938 717.442 177.104 717.995 180.164 719.88C180.8 720.268 181.141 720.829 181.187 721.563C181.257 722.317 181.043 722.987 180.545 723.571L180.295 723.863C179.817 724.422 179.19 724.739 178.412 724.811C177.66 724.904 176.963 724.735 176.323 724.302C174.116 722.898 171.962 722.316 169.863 722.558C167.809 722.796 166.014 723.815 164.476 725.615L159.394 731.565C158.916 732.124 158.289 732.44 157.511 732.513C156.759 732.606 156.096 732.422 155.522 731.961L153.501 730.338Z" fill="#0504B7"/>
<path d="M187.305 733.196C186.7 732.776 186.327 732.205 186.184 731.483C186.06 730.735 186.217 730.065 186.654 729.473C187.091 728.881 187.694 728.521 188.464 728.393C189.234 728.266 189.921 728.412 190.526 728.832L192.103 729.927C192.313 730.073 192.504 730.03 192.675 729.799L196.21 725.01C196.647 724.418 197.25 724.058 198.02 723.931C198.79 723.803 199.478 723.95 200.082 724.369L201.974 725.684C202.579 726.103 202.943 726.687 203.067 727.435C203.191 728.183 203.034 728.853 202.597 729.446L199.062 734.234C198.891 734.466 198.924 734.664 199.16 734.828L203.024 737.511C203.628 737.931 203.979 738.506 204.077 739.236C204.201 739.984 204.044 740.654 203.607 741.246C203.17 741.838 202.566 742.198 201.796 742.325C201.072 742.445 200.407 742.295 199.803 741.875L195.939 739.192C195.702 739.028 195.499 739.061 195.328 739.293L190.453 745.897C189.255 747.519 188.64 748.649 188.606 749.287C188.598 749.944 189.12 750.637 190.171 751.368C190.723 751.751 191.176 752.026 191.529 752.194C192.165 752.518 192.582 753.003 192.782 753.648C192.982 754.293 192.882 754.886 192.483 755.426L192.255 755.735C191.78 756.379 191.151 756.799 190.37 756.996C189.588 757.193 188.84 757.102 188.126 756.723C187.235 756.261 186.251 755.655 185.174 754.907C182.493 753.045 181.009 751.177 180.722 749.303C180.481 747.422 181.434 745.027 183.581 742.118L188.941 734.858C189.112 734.626 189.092 734.437 188.882 734.291L187.305 733.196Z" fill="#0504B7"/>
<path d="M204.115 766.709C203.486 766.326 203.087 765.765 202.918 765.026C202.748 764.286 202.864 763.608 203.263 762.99L213.845 746.625C214.245 746.007 214.825 745.611 215.585 745.436C216.345 745.262 217.039 745.367 217.668 745.749L219.965 747.146C220.593 747.529 220.993 748.09 221.162 748.829C221.331 749.569 221.216 750.247 220.817 750.865L210.235 767.23C209.835 767.848 209.255 768.244 208.495 768.419C207.735 768.593 207.04 768.488 206.412 768.106L204.115 766.709ZM220.275 741.718C219.646 741.336 219.247 740.775 219.077 740.035C218.908 739.296 219.023 738.617 219.423 737.999L219.84 737.354C220.239 736.736 220.819 736.34 221.579 736.166C222.34 735.992 223.034 736.096 223.663 736.478L225.959 737.875C226.588 738.258 226.987 738.819 227.157 739.558C227.326 740.298 227.211 740.977 226.811 741.595L226.394 742.24C225.994 742.858 225.415 743.254 224.654 743.428C223.894 743.602 223.2 743.498 222.571 743.115L220.275 741.718Z" fill="#0504B7"/>
<path d="M225.074 775.965L229.305 755.848C229.448 755.2 229.822 754.728 230.428 754.432C231.062 754.152 231.676 754.168 232.27 754.482L234.818 755.824C235.526 756.197 236.023 756.749 236.311 757.479C236.642 758.196 236.691 758.927 236.457 759.672L231.32 777.088C231.304 777.116 231.311 777.137 231.339 777.152C231.367 777.167 231.389 777.16 231.405 777.132L243.676 763.477C244.193 762.881 244.838 762.516 245.61 762.381C246.427 762.233 247.189 762.345 247.896 762.718L250.274 763.971C250.869 764.285 251.203 764.768 251.277 765.422C251.379 766.09 251.189 766.659 250.706 767.128L235.604 781.516C235.002 782.066 234.287 782.394 233.458 782.5C232.657 782.62 231.903 782.494 231.195 782.121L226.949 779.882C226.213 779.495 225.665 778.934 225.305 778.202C224.973 777.485 224.896 776.739 225.074 775.965Z" fill="#0504B7"/>
<path d="M269.009 799.982C268.318 799.727 267.817 799.252 267.506 798.557C267.194 797.862 267.173 797.173 267.442 796.487L278.247 768.964C278.516 768.279 279.005 767.778 279.714 767.46C280.423 767.142 281.123 767.11 281.813 767.365L284.38 768.313C285.16 768.601 285.784 769.07 286.251 769.72C286.717 770.37 286.96 771.108 286.98 771.934L287.346 791.356C287.335 791.386 287.344 791.406 287.374 791.417C287.404 791.428 287.425 791.419 287.436 791.389L301.028 777.122C301.609 776.518 302.297 776.124 303.091 775.94C303.885 775.755 304.672 775.807 305.453 776.096L308.199 777.11C308.89 777.365 309.391 777.84 309.702 778.535C310.014 779.23 310.035 779.92 309.766 780.605L298.961 808.128C298.692 808.813 298.203 809.314 297.494 809.632C296.785 809.95 296.085 809.982 295.395 809.727L293.234 808.929C292.543 808.674 292.042 808.199 291.731 807.504C291.449 806.82 291.443 806.136 291.712 805.451L298.535 788.07C298.547 788.04 298.538 788.02 298.508 788.009C298.447 787.986 298.412 787.99 298.4 788.02L290.096 796.566C289.515 797.17 288.812 797.559 287.988 797.732C287.194 797.916 286.407 797.864 285.626 797.576L284.456 797.143C283.675 796.855 283.037 796.381 282.54 795.72C282.073 795.07 281.83 794.332 281.811 793.506L281.47 781.767C281.481 781.738 281.457 781.712 281.397 781.689C281.367 781.678 281.346 781.688 281.335 781.718L274.511 799.098C274.242 799.783 273.753 800.285 273.044 800.603C272.365 800.932 271.68 800.969 270.99 800.714L269.009 799.982Z" fill="#0504B7"/>
<path d="M317.181 816.782C314.462 816.051 312.699 814.766 311.894 812.926C311.119 811.094 311.255 808.348 312.301 804.686L315.676 792.871C315.878 792.163 316.316 791.618 316.991 791.236C317.666 790.855 318.358 790.759 319.069 790.95L321.109 791.498C321.82 791.689 322.363 792.117 322.739 792.781C323.115 793.445 323.202 794.131 323 794.839L319.77 806.147C319.26 807.931 319.14 809.224 319.411 810.026C319.72 810.805 320.463 811.352 321.637 811.668C322.719 811.958 323.831 811.793 324.973 811.173C326.124 810.521 326.844 809.688 327.134 808.672L330.509 796.857C330.711 796.149 331.15 795.604 331.825 795.222C332.499 794.841 333.192 794.745 333.903 794.936L336.128 795.534C336.839 795.725 337.382 796.153 337.758 796.817C338.134 797.481 338.221 798.167 338.019 798.875L332.667 817.613C332.464 818.321 332.026 818.866 331.351 819.248C330.676 819.63 329.984 819.725 329.273 819.534L327.372 819.023C326.631 818.824 326.067 818.408 325.683 817.774C325.338 817.118 325.255 816.417 325.435 815.67L325.541 815.301C325.549 815.27 325.538 815.251 325.507 815.242L325.388 815.31C322.729 817.047 319.994 817.538 317.181 816.782Z" fill="#0504B7"/>
<path d="M346.797 823.606C346.073 823.471 345.496 823.087 345.067 822.454C344.669 821.827 344.542 821.152 344.684 820.43L348.463 801.312C348.606 800.59 348.982 800.009 349.591 799.569C350.231 799.135 350.913 798.985 351.636 799.12L353.571 799.479C354.326 799.62 354.903 800.004 355.301 800.631C355.736 801.233 355.895 801.913 355.778 802.672L355.751 803.058C355.744 803.089 355.757 803.108 355.788 803.114L355.901 803.037C358.406 801.094 361.089 800.389 363.952 800.921C366.815 801.454 368.714 802.653 369.65 804.52C370.592 806.355 370.678 809.218 369.909 813.111L367.619 824.695C367.477 825.417 367.085 825.995 366.445 826.429C365.836 826.87 365.17 827.022 364.446 826.888L362.37 826.502C361.646 826.367 361.07 825.983 360.64 825.35C360.211 824.717 360.068 824.039 360.21 823.317L362.453 811.969C362.826 810.085 362.828 808.751 362.462 807.967C362.101 807.152 361.26 806.621 359.939 806.375C358.837 806.17 357.725 806.436 356.601 807.17C355.515 807.88 354.87 808.752 354.665 809.788L352.282 821.843C352.139 822.565 351.748 823.143 351.108 823.578C350.499 824.018 349.833 824.17 349.109 824.036L346.797 823.606Z" fill="#0504B7"/>
<path d="M382.97 829.518C382.24 829.43 381.639 829.084 381.168 828.479C380.697 827.875 380.508 827.207 380.601 826.477L383.077 807.147C383.17 806.417 383.522 805.815 384.131 805.34C384.74 804.866 385.41 804.672 386.141 804.761L388.81 805.082C389.54 805.17 390.141 805.516 390.612 806.121C391.083 806.726 391.272 807.393 391.178 808.123L388.703 827.453C388.609 828.183 388.258 828.786 387.649 829.26C387.04 829.735 386.37 829.928 385.639 829.84L382.97 829.518ZM386.751 799.999C386.02 799.911 385.419 799.565 384.948 798.96C384.477 798.356 384.288 797.688 384.382 796.958L384.479 796.197C384.573 795.467 384.924 794.864 385.533 794.39C386.143 793.915 386.813 793.722 387.543 793.81L390.212 794.131C390.943 794.22 391.544 794.566 392.015 795.171C392.486 795.775 392.674 796.443 392.581 797.173L392.483 797.934C392.39 798.664 392.038 799.267 391.429 799.741C390.82 800.216 390.15 800.409 389.419 800.321L386.751 799.999Z" fill="#0504B7"/>
<path d="M412.4 832.685C408.28 832.435 405.188 831.158 403.123 828.853C401.059 826.548 400.165 823.256 400.44 818.977C400.71 814.793 401.97 811.664 404.22 809.588C406.504 807.482 409.626 806.549 413.587 806.789C414.896 806.869 416.628 807.118 418.781 807.537C419.572 807.713 420.187 808.119 420.627 808.755C421.101 809.36 421.312 810.062 421.261 810.861L421.23 811.34C421.187 812.01 420.88 812.537 420.311 812.919C419.741 813.301 419.125 813.408 418.462 813.24C417.167 812.937 415.817 812.743 414.411 812.658C412.591 812.548 411.196 813.04 410.228 814.136C409.293 815.201 408.746 816.979 408.586 819.47C408.421 822.025 408.766 823.889 409.62 825.063C410.509 826.207 411.959 826.839 413.971 826.961C415.473 827.052 416.822 827.006 418.021 826.822C418.702 826.703 419.284 826.866 419.769 827.313C420.285 827.761 420.522 828.32 420.478 828.99L420.448 829.47C420.396 830.268 420.094 830.971 419.542 831.579C418.992 832.154 418.33 832.483 417.555 832.564C415.779 832.745 414.061 832.785 412.4 832.685Z" fill="#0504B7"/>
<path d="M436.629 832.962C435.893 832.961 435.253 832.688 434.71 832.144C434.166 831.599 433.895 830.959 433.896 830.223L433.919 810.735C433.92 809.999 434.193 809.359 434.737 808.816C435.282 808.272 435.922 808.001 436.658 808.002L439.346 808.005C440.082 808.006 440.722 808.278 441.265 808.823C441.809 809.368 442.08 810.008 442.079 810.744L442.056 830.232C442.055 830.968 441.782 831.608 441.238 832.151C440.693 832.694 440.053 832.966 439.317 832.965L436.629 832.962ZM436.664 803.202C435.928 803.201 435.288 802.928 434.745 802.384C434.202 801.839 433.93 801.199 433.931 800.463L433.932 799.695C433.933 798.959 434.206 798.319 434.751 797.776C435.295 797.232 435.935 796.961 436.671 796.962L439.359 796.965C440.095 796.966 440.735 797.239 441.279 797.783C441.822 798.328 442.093 798.968 442.092 799.704L442.091 800.472C442.09 801.208 441.818 801.848 441.273 802.391C440.728 802.935 440.088 803.206 439.352 803.205L436.664 803.202Z" fill="#0504B7"/>
<path d="M461.663 816.912L462.059 822.85C462.13 823.904 462.674 824.848 463.692 825.682C464.739 826.481 465.886 826.842 467.131 826.764C468.601 826.672 469.727 826.008 470.51 824.772C471.292 823.505 471.602 821.674 471.442 819.279C471.123 814.49 469.366 812.195 466.172 812.396C464.926 812.474 463.839 812.991 462.908 813.948C462.008 814.87 461.593 815.858 461.663 816.912ZM458.558 843.174C457.823 843.22 457.166 842.989 456.587 842.48C456.008 841.971 455.694 841.35 455.645 840.615L453.643 810.634C453.594 809.9 453.823 809.244 454.329 808.667C454.836 808.09 455.457 807.779 456.191 807.733L458.107 807.612C458.874 807.564 459.547 807.794 460.126 808.303C460.703 808.78 461.033 809.4 461.116 810.165L461.142 810.548C461.144 810.58 461.161 810.595 461.193 810.593L461.282 810.491C463.168 808 465.549 806.664 468.423 806.483C471.393 806.297 473.831 807.266 475.737 809.39C477.675 811.513 478.782 814.65 479.059 818.801C479.328 822.824 478.613 826.043 476.914 828.458C475.247 830.871 472.992 832.167 470.15 832.346C467.499 832.512 465.071 831.687 462.865 829.87C462.831 829.84 462.798 829.826 462.766 829.828C462.734 829.83 462.719 829.847 462.721 829.879L463.406 840.128C463.455 840.862 463.226 841.518 462.719 842.095C462.213 842.672 461.592 842.983 460.857 843.029L458.558 843.174Z" fill="#0504B7"/>
<path d="M500.502 817.139C496.636 817.679 494.879 819.137 495.232 821.511C495.359 822.365 495.714 823.01 496.296 823.446C496.874 823.85 497.59 823.992 498.446 823.872C499.967 823.659 501.133 823.012 501.942 821.929C502.747 820.815 503.03 819.451 502.79 817.836L502.705 817.267C502.663 816.982 502.499 816.859 502.214 816.899L500.502 817.139ZM496.929 829.658C494.742 829.964 492.832 829.52 491.199 828.327C489.593 827.097 488.622 825.359 488.288 823.112C487.432 817.351 491.282 813.872 499.839 812.676L501.55 812.436C501.835 812.396 501.959 812.25 501.921 811.997L501.886 811.759C501.707 810.556 501.261 809.73 500.547 809.281C499.865 808.827 498.795 808.702 497.337 808.906C495.404 809.176 493.135 809.801 490.531 810.779C489.884 810.998 489.261 810.94 488.661 810.604C488.093 810.264 487.759 809.761 487.66 809.096L487.646 809.001C487.529 808.21 487.66 807.465 488.042 806.765C488.45 806.029 489.025 805.545 489.767 805.312C492.475 804.384 494.844 803.778 496.872 803.494C501.024 802.914 504.066 803.248 505.998 804.496C507.963 805.74 509.201 808.087 509.714 811.537L511.62 824.356C511.728 825.084 511.553 825.755 511.094 826.368C510.635 826.981 510.042 827.339 509.313 827.441L507.554 827.687C506.793 827.793 506.106 827.631 505.492 827.2C504.873 826.737 504.491 826.128 504.347 825.373L504.269 824.851C504.264 824.819 504.246 824.806 504.215 824.81C504.151 824.819 504.122 824.839 504.127 824.871C502.497 827.619 500.098 829.215 496.929 829.658Z" fill="#0504B7"/>
<path d="M527.388 824.094C526.667 824.241 525.982 824.103 525.334 823.679C524.686 823.256 524.284 822.685 524.129 821.965L517.677 792.127C517.521 791.408 517.652 790.728 518.07 790.088C518.489 789.448 519.058 789.054 519.779 788.907L522.413 788.372C523.135 788.225 523.819 788.363 524.467 788.786C525.115 789.21 525.517 789.781 525.673 790.5L532.125 820.339C532.281 821.058 532.149 821.738 531.731 822.378C531.313 823.018 530.743 823.412 530.022 823.558L527.388 824.094Z" fill="#0504B7"/>
<path d="M569.755 798.691C565.502 798.694 562.221 798.071 559.911 796.822C557.59 795.543 555.991 793.599 555.114 790.99C554.155 788.139 554.392 785.581 555.824 783.316C557.277 781.011 559.864 779.269 563.586 778.091C566.393 777.203 569.048 776.716 571.55 776.629C572.354 776.61 573.082 776.866 573.733 777.398C574.405 777.89 574.874 778.531 575.139 779.319L575.582 780.639C575.786 781.245 575.685 781.797 575.279 782.295C574.872 782.793 574.344 783.027 573.692 782.998C570.793 782.909 568.245 783.212 566.048 783.907C563.242 784.795 562.205 786.331 562.94 788.514C563.562 790.365 565.226 791.298 567.932 791.314C572.571 791.256 575.984 791.821 578.173 793.007C580.391 794.185 581.965 796.153 582.893 798.914C585.086 805.435 582.048 810.003 573.78 812.619C571.157 813.449 568.639 813.793 566.228 813.649C565.404 813.608 564.666 813.321 564.015 812.789C563.384 812.217 562.93 811.521 562.655 810.702L562.165 809.247C561.982 808.701 562.088 808.214 562.484 807.787C562.87 807.329 563.348 807.144 563.918 807.232C566.513 807.62 568.969 807.446 571.288 806.713C572.905 806.201 574.023 805.512 574.643 804.645C575.283 803.737 575.409 802.707 575.022 801.555C574.685 800.554 574.12 799.827 573.326 799.373C572.532 798.92 571.342 798.692 569.755 798.691Z" fill="#0504B7"/>
<path d="M604.06 801.85C601.449 802.906 599.241 802.953 597.435 801.993C595.659 801.02 594.019 798.784 592.515 795.286L587.663 783.997C587.372 783.32 587.371 782.63 587.661 781.927C587.95 781.223 588.436 780.733 589.119 780.457L591.077 779.665C591.759 779.39 592.46 779.4 593.179 779.695C593.898 779.991 594.403 780.477 594.694 781.153L599.338 791.958C600.071 793.663 600.799 794.749 601.522 795.216C602.262 795.641 603.195 795.626 604.323 795.17C605.361 794.75 606.133 793.955 606.64 792.784C607.134 791.583 607.172 790.498 606.755 789.528L601.902 778.238C601.612 777.562 601.611 776.872 601.901 776.168C602.19 775.465 602.676 774.975 603.358 774.699L605.494 773.835C606.177 773.559 606.878 773.569 607.597 773.865C608.316 774.161 608.821 774.647 609.111 775.323L616.807 793.227C617.098 793.903 617.098 794.593 616.809 795.297C616.519 796.001 616.034 796.491 615.351 796.767L613.527 797.504C612.815 797.792 612.105 797.803 611.399 797.537C610.709 797.229 610.198 796.728 609.865 796.034L609.714 795.682C609.701 795.652 609.68 795.644 609.65 795.656L609.599 795.78C608.606 798.735 606.76 800.758 604.06 801.85Z" fill="#0504B7"/>
<path d="M639.379 786.011C635.678 787.839 632.332 788.28 629.341 787.332C626.349 786.383 623.857 784.011 621.863 780.215C619.913 776.504 619.372 773.203 620.238 770.313C621.119 767.38 623.337 765.035 626.895 763.277C628.071 762.695 629.701 762.05 631.786 761.341C632.563 761.1 633.308 761.142 634.021 761.468C634.748 761.751 635.297 762.247 635.669 762.955L635.892 763.38C636.205 763.975 636.214 764.577 635.92 765.186C635.626 765.795 635.148 766.192 634.486 766.377C633.205 766.76 631.934 767.263 630.672 767.887C629.036 768.695 628.085 769.807 627.817 771.224C627.564 772.598 628.017 774.39 629.178 776.6C630.369 778.866 631.64 780.29 632.993 780.87C634.36 781.408 635.947 781.23 637.754 780.337C639.102 779.671 640.248 778.962 641.19 778.211C641.718 777.772 642.308 777.623 642.961 777.764C643.642 777.891 644.139 778.252 644.451 778.847L644.675 779.272C645.047 779.98 645.152 780.731 644.991 781.525C644.814 782.29 644.412 782.899 643.783 783.353C642.339 784.387 640.871 785.273 639.379 786.011Z" fill="#0504B7"/>
<path d="M655.488 753.667C654.247 754.397 653.512 755.274 653.285 756.298C653.041 757.296 653.319 758.616 654.121 760.26C654.257 760.477 654.421 760.529 654.614 760.415L661.606 756.303C661.855 756.157 661.902 755.961 661.75 755.717C659.892 752.987 657.805 752.304 655.488 753.667ZM667.49 770.6C663.739 772.806 660.257 773.574 657.046 772.902C653.861 772.214 651.15 770.08 648.91 766.498C646.688 762.944 645.888 759.703 646.51 756.776C647.143 753.806 649.17 751.315 652.59 749.304C659.154 745.442 664.697 747.006 669.218 753.996C669.626 754.647 669.711 755.358 669.476 756.127C669.251 756.853 668.807 757.411 668.145 757.8L657.098 764.298C656.823 764.46 656.789 764.647 656.997 764.859C658.15 766.222 659.4 766.953 660.745 767.052C662.1 767.108 663.729 766.577 665.633 765.457C666.874 764.727 668.101 763.764 669.315 762.568C669.809 762.091 670.388 761.9 671.049 761.993C671.739 762.07 672.262 762.393 672.618 762.963L672.669 763.044C673.093 763.723 673.263 764.477 673.177 765.306C673.103 766.092 672.769 766.734 672.175 767.232C670.762 768.471 669.2 769.594 667.49 770.6Z" fill="#0504B7"/>
<path d="M688.171 743.024C684.964 745.251 684.073 747.33 685.499 749.261C686.012 749.956 686.631 750.363 687.355 750.483C688.061 750.577 688.769 750.378 689.478 749.885C690.74 749.009 691.48 747.911 691.698 746.591C691.898 745.245 691.513 743.916 690.544 742.603L690.201 742.14C690.03 741.908 689.827 741.874 689.59 742.038L688.171 743.024ZM690.825 755.668C689.011 756.927 687.095 757.401 685.076 757.09C683.064 756.734 681.384 755.643 680.034 753.815C676.576 749.129 678.394 744.322 685.491 739.394L686.91 738.408C687.147 738.244 687.189 738.059 687.037 737.853L686.895 737.66C686.172 736.682 685.387 736.156 684.538 736.084C683.716 735.993 682.7 736.367 681.491 737.207C679.888 738.32 678.149 739.897 676.276 741.938C675.8 742.424 675.216 742.655 674.522 742.631C673.854 742.588 673.321 742.296 672.922 741.756L672.865 741.678C672.389 741.035 672.159 740.319 672.173 739.53C672.195 738.697 672.483 738.01 673.038 737.469C675.027 735.425 676.863 733.819 678.546 732.651C681.989 730.26 684.867 729.177 687.179 729.401C689.518 729.607 691.723 731.113 693.795 733.92L701.492 744.346C701.929 744.939 702.085 745.609 701.962 746.357C701.838 747.105 701.474 747.688 700.869 748.108L699.41 749.121C698.78 749.559 698.089 749.728 697.338 749.626C696.568 749.499 695.942 749.135 695.459 748.535L695.146 748.111C695.127 748.085 695.104 748.081 695.078 748.099C695.025 748.136 695.009 748.167 695.028 748.193C694.854 751.351 693.453 753.843 690.825 755.668Z" fill="#0504B7"/>
<path d="M714.003 734.738L696.318 723.63C695.751 723.266 695.439 722.757 695.382 722.103C695.35 721.429 695.595 720.881 696.117 720.457L698.354 718.643C698.975 718.139 699.689 717.89 700.496 717.894C701.306 717.855 702.024 718.075 702.65 718.556L717.41 729.504C717.431 729.528 717.453 729.53 717.478 729.51C717.503 729.49 717.505 729.468 717.484 729.443L708.987 713.416C708.61 712.734 708.501 712.019 708.66 711.273C708.822 710.482 709.215 709.834 709.836 709.33L711.923 707.637C712.445 707.214 713.033 707.087 713.687 707.257C714.365 707.407 714.838 707.785 715.107 708.391L723.249 727.239C723.551 727.982 723.598 728.747 723.39 729.534C723.206 730.3 722.804 730.936 722.183 731.439L718.455 734.463C717.808 734.987 717.068 735.279 716.232 735.339C715.422 735.379 714.679 735.178 714.003 734.738Z" fill="#0504B7"/>
<path d="M737.154 702.841C734.314 705.52 733.744 707.707 735.443 709.402C736.055 710.012 736.729 710.322 737.464 710.332C738.176 710.32 738.846 710.017 739.475 709.424C740.592 708.37 741.16 707.175 741.178 705.838C741.174 704.479 740.595 703.223 739.439 702.071L739.031 701.664C738.827 701.461 738.62 701.458 738.411 701.655L737.154 702.841ZM741.673 714.936C740.066 716.451 738.241 717.206 736.197 717.2C734.153 717.149 732.327 716.321 730.718 714.717C726.594 710.605 727.674 705.584 733.959 699.655L735.216 698.469C735.426 698.272 735.44 698.083 735.258 697.902L735.088 697.732C734.227 696.874 733.372 696.472 732.521 696.527C731.693 696.56 730.744 697.082 729.673 698.092C728.254 699.431 726.77 701.249 725.222 703.545C724.823 704.096 724.279 704.412 723.589 704.491C722.922 704.549 722.351 704.34 721.875 703.866L721.807 703.798C721.24 703.233 720.905 702.56 720.801 701.779C720.698 700.953 720.88 700.231 721.348 699.614C723.011 697.297 724.588 695.436 726.077 694.031C729.127 691.154 731.812 689.654 734.134 689.531C736.479 689.385 738.887 690.543 741.357 693.006L750.533 702.158C751.054 702.678 751.31 703.316 751.299 704.074C751.289 704.831 751.016 705.462 750.48 705.967L749.189 707.186C748.63 707.713 747.972 707.982 747.213 707.994C746.432 707.983 745.758 707.718 745.191 707.197L744.817 706.824C744.795 706.802 744.772 706.802 744.748 706.824C744.702 706.867 744.69 706.901 744.713 706.923C745.014 710.069 744 712.74 741.673 714.936Z" fill="#0504B7"/>
<path d="M766.312 672.971C765.839 673.535 765.213 673.856 764.437 673.935C763.681 673.99 763.014 673.789 762.436 673.333L761.909 672.916C761.332 672.46 760.994 671.867 760.897 671.137C760.82 670.384 761.018 669.725 761.492 669.161L768.717 660.562C769.191 659.998 769.806 659.689 770.562 659.635C771.338 659.555 772.015 659.744 772.593 660.2L773.12 660.617C773.697 661.074 774.025 661.679 774.101 662.433C774.199 663.162 774.011 663.808 773.537 664.372L766.312 672.971Z" fill="#0504B7"/>
<path d="M804.39 636.24L773.643 628.759C772.975 628.612 772.514 628.236 772.26 627.63C772.023 626.997 772.088 626.399 772.455 625.836L774.211 623.142C774.648 622.471 775.259 622.002 776.045 621.733C776.804 621.448 777.563 621.426 778.323 621.666L802.667 629.218C802.694 629.235 802.716 629.23 802.734 629.203C802.751 629.176 802.746 629.154 802.719 629.137L785.346 610.889C784.796 610.326 784.491 609.652 784.431 608.865C784.344 608.061 784.519 607.324 784.956 606.654L786.607 604.12C786.974 603.557 787.494 603.257 788.167 603.22C788.858 603.155 789.415 603.384 789.839 603.907L809.998 627.634C810.531 628.223 810.818 628.925 810.861 629.739C810.92 630.526 810.723 631.268 810.269 631.965L808.539 634.619C808.103 635.289 807.496 635.781 806.72 636.093C805.961 636.378 805.185 636.427 804.39 636.24Z" fill="#0504B7"/>
<path d="M812.28 592.26C810.859 592.401 809.769 593.176 809.01 594.584C808.251 595.992 808.21 597.317 808.887 598.556C809.578 599.768 811.109 600.974 813.477 602.175C815.846 603.376 817.741 603.906 819.161 603.766C820.597 603.597 821.694 602.808 822.453 601.4C823.212 599.991 823.246 598.681 822.554 597.47C821.878 596.23 820.355 595.01 817.986 593.809C815.617 592.608 813.715 592.091 812.28 592.26ZM828.646 594.156C829.625 597.127 829.174 600.359 827.291 603.852C825.409 607.345 822.93 609.55 819.856 610.466C816.782 611.383 813.419 610.915 809.766 609.062C806.112 607.21 803.796 604.799 802.817 601.827C801.838 598.856 802.29 595.624 804.173 592.131C806.055 588.638 808.533 586.434 811.607 585.517C814.681 584.601 818.045 585.069 821.698 586.921C825.351 588.773 827.668 591.185 828.646 594.156Z" fill="#0504B7"/>
<path d="M838.656 579.828C838.351 580.498 837.835 580.973 837.109 581.253C836.383 581.533 835.682 581.528 835.006 581.237L806.957 569.186C806.281 568.896 805.806 568.396 805.532 567.686C805.258 566.977 805.274 566.287 805.58 565.618L806.696 563.172C807.002 562.503 807.518 562.028 808.244 561.748C808.97 561.468 809.671 561.473 810.347 561.764L838.396 573.815C839.072 574.105 839.547 574.605 839.821 575.315C840.095 576.024 840.079 576.714 839.773 577.383L838.656 579.828Z" fill="#0504B7"/>
<path d="M830.594 546.69C830.082 548.036 830.057 549.182 830.519 550.129C830.95 551.064 831.99 551.929 833.639 552.723C833.88 552.81 834.041 552.748 834.12 552.539L837.004 544.957C837.107 544.688 837.022 544.505 836.751 544.407C833.602 543.417 831.55 544.177 830.594 546.69ZM850.499 552.539C848.952 556.606 846.718 559.375 843.797 560.844C840.888 562.283 837.445 562.292 833.468 560.868C829.521 559.456 826.878 557.406 825.538 554.718C824.18 551.989 824.206 548.77 825.617 545.061C828.325 537.943 833.618 535.726 841.497 538.409C842.22 538.668 842.73 539.173 843.026 539.925C843.303 540.636 843.305 541.35 843.032 542.068L838.476 554.047C838.362 554.346 838.452 554.514 838.746 554.551C840.494 554.905 841.923 554.703 843.033 553.944C844.124 553.146 845.062 551.714 845.847 549.651C846.359 548.305 846.715 546.784 846.915 545.088C847.003 544.406 847.334 543.896 847.908 543.558C848.493 543.19 849.102 543.119 849.735 543.345L849.825 543.377C850.579 543.647 851.18 544.134 851.631 544.839C852.063 545.503 852.203 546.216 852.05 546.977C851.722 548.83 851.205 550.684 850.499 552.539Z" fill="#0504B7"/>
<path d="M857.936 529.207C857.719 529.91 857.27 530.447 856.587 530.815C855.905 531.184 855.21 531.266 854.503 531.061L835.783 525.644C835.076 525.44 834.541 525.002 834.179 524.331C833.816 523.66 833.743 522.972 833.959 522.269L834.75 519.7C834.966 518.996 835.416 518.46 836.098 518.091C836.781 517.723 837.475 517.64 838.182 517.845L856.902 523.262C857.609 523.467 858.144 523.905 858.507 524.576C858.869 525.247 858.942 525.934 858.726 526.638L857.936 529.207ZM829.349 520.935C829.132 521.638 828.683 522.174 828 522.543C827.318 522.912 826.623 522.994 825.916 522.789L825.178 522.576C824.471 522.371 823.937 521.933 823.574 521.262C823.211 520.591 823.138 519.904 823.355 519.2L824.145 516.631C824.361 515.927 824.811 515.391 825.493 515.023C826.176 514.654 826.87 514.572 827.577 514.776L828.315 514.99C829.022 515.194 829.557 515.632 829.92 516.303C830.282 516.975 830.355 517.662 830.139 518.365L829.349 520.935Z" fill="#0504B7"/>
<path d="M450.329 358.719C446.969 357.652 444.542 356.332 443.049 354.759C441.555 353.159 440.809 351.212 440.809 348.919C440.809 346.412 441.675 344.439 443.409 342.999C445.169 341.532 447.675 340.799 450.929 340.799C453.382 340.799 455.609 341.079 457.609 341.639C458.249 341.826 458.755 342.212 459.129 342.799C459.529 343.359 459.729 343.986 459.729 344.679V345.839C459.729 346.372 459.502 346.786 459.049 347.079C458.595 347.372 458.115 347.426 457.609 347.239C455.342 346.439 453.249 346.039 451.329 346.039C448.875 346.039 447.649 346.999 447.649 348.919C447.649 350.546 448.715 351.706 450.849 352.399C454.529 353.519 457.075 354.826 458.489 356.319C459.929 357.812 460.649 359.772 460.649 362.199C460.649 367.932 457.035 370.799 449.809 370.799C447.515 370.799 445.435 370.439 443.569 369.719C442.929 369.479 442.422 369.066 442.049 368.479C441.702 367.866 441.529 367.199 441.529 366.479V365.199C441.529 364.719 441.742 364.359 442.169 364.119C442.595 363.852 443.022 363.826 443.449 364.039C445.395 364.999 447.382 365.479 449.409 365.479C450.822 365.479 451.889 365.212 452.609 364.679C453.355 364.119 453.729 363.332 453.729 362.319C453.729 361.439 453.475 360.719 452.969 360.159C452.462 359.599 451.582 359.119 450.329 358.719ZM463.809 418.799C463.809 426.132 460.075 429.799 452.609 429.799C445.142 429.799 441.409 426.132 441.409 418.799V402.479C441.409 401.866 441.635 401.332 442.089 400.879C442.542 400.426 443.075 400.199 443.689 400.199H446.009C446.622 400.199 447.155 400.426 447.609 400.879C448.062 401.332 448.289 401.866 448.289 402.479V419.279C448.289 421.092 448.635 422.386 449.329 423.159C450.022 423.932 451.142 424.319 452.689 424.319C454.235 424.319 455.355 423.932 456.049 423.159C456.742 422.386 457.089 421.092 457.089 419.279V402.479C457.089 401.866 457.315 401.332 457.769 400.879C458.222 400.426 458.755 400.199 459.369 400.199H461.529C462.142 400.199 462.675 400.426 463.129 400.879C463.582 401.332 463.809 401.866 463.809 402.479V418.799ZM454.089 488.799C449.715 488.799 446.275 487.506 443.769 484.919C441.262 482.332 440.009 478.626 440.009 473.799C440.009 469.052 441.222 465.372 443.649 462.759C446.075 460.119 449.462 458.799 453.809 458.799C455.889 458.799 457.702 458.946 459.249 459.239C459.889 459.346 460.409 459.666 460.809 460.199C461.209 460.732 461.409 461.332 461.409 461.999V463.279C461.409 463.839 461.182 464.279 460.729 464.599C460.275 464.919 459.782 465.012 459.249 464.879C457.729 464.479 456.182 464.279 454.609 464.279C452.209 464.279 450.329 465.092 448.969 466.719C447.635 468.346 446.969 470.706 446.969 473.799C446.969 476.839 447.689 479.199 449.129 480.879C450.569 482.559 452.489 483.399 454.889 483.399C456.489 483.399 458.049 483.199 459.569 482.799C460.102 482.666 460.595 482.759 461.049 483.079C461.529 483.399 461.769 483.839 461.769 484.399V485.599C461.769 486.266 461.555 486.866 461.129 487.399C460.729 487.932 460.209 488.252 459.569 488.359C457.995 488.652 456.169 488.799 454.089 488.799ZM444.049 547.399C443.435 547.399 442.902 547.172 442.449 546.719C442.022 546.266 441.809 545.732 441.809 545.119V520.479C441.809 519.866 442.022 519.332 442.449 518.879C442.902 518.426 443.435 518.199 444.049 518.199H458.209C458.822 518.199 459.342 518.426 459.769 518.879C460.222 519.332 460.449 519.866 460.449 520.479V521.399C460.449 522.012 460.222 522.546 459.769 522.999C459.342 523.452 458.822 523.679 458.209 523.679H448.929C448.715 523.679 448.609 523.786 448.609 523.999V529.279C448.609 529.519 448.715 529.639 448.929 529.639H457.409C458.022 529.639 458.542 529.866 458.969 530.319C459.422 530.772 459.649 531.306 459.649 531.919V532.519C459.649 533.132 459.422 533.666 458.969 534.119C458.542 534.572 458.022 534.799 457.409 534.799H448.929C448.715 534.799 448.609 534.906 448.609 535.119V541.599C448.609 541.812 448.715 541.919 448.929 541.919H458.209C458.822 541.919 459.342 542.146 459.769 542.599C460.222 543.052 460.449 543.586 460.449 544.199V545.119C460.449 545.732 460.222 546.266 459.769 546.719C459.342 547.172 458.822 547.399 458.209 547.399H444.049ZM452.209 583.119L449.289 594.599C449.262 594.679 449.275 594.759 449.329 594.839C449.409 594.892 449.489 594.919 449.569 594.919H454.929C455.009 594.919 455.075 594.892 455.129 594.839C455.209 594.759 455.235 594.679 455.209 594.599L452.289 583.119C452.289 583.092 452.275 583.079 452.249 583.079C452.222 583.079 452.209 583.092 452.209 583.119ZM441.529 606.399C440.969 606.399 440.515 606.172 440.169 605.719C439.849 605.266 439.782 604.772 439.969 604.239L448.049 579.359C448.262 578.719 448.635 578.199 449.169 577.799C449.729 577.399 450.342 577.199 451.009 577.199H453.649C454.342 577.199 454.969 577.399 455.529 577.799C456.089 578.199 456.462 578.719 456.649 579.359L464.689 604.239C464.875 604.772 464.795 605.266 464.449 605.719C464.129 606.172 463.689 606.399 463.129 606.399H460.449C459.782 606.399 459.182 606.199 458.649 605.799C458.115 605.372 457.769 604.839 457.609 604.199L456.649 600.399C456.622 600.186 456.489 600.079 456.249 600.079H448.249C448.035 600.079 447.902 600.186 447.849 600.399L446.889 604.199C446.729 604.839 446.382 605.372 445.849 605.799C445.315 606.199 444.715 606.399 444.049 606.399H441.529ZM448.049 663.239L439.969 638.359C439.782 637.826 439.849 637.332 440.169 636.879C440.515 636.426 440.969 636.199 441.529 636.199H444.209C444.875 636.199 445.475 636.412 446.009 636.839C446.542 637.239 446.889 637.759 447.049 638.399L452.289 658.839C452.289 658.866 452.302 658.879 452.329 658.879C452.355 658.879 452.369 658.866 452.369 658.839L457.769 638.399C457.929 637.759 458.275 637.239 458.809 636.839C459.342 636.412 459.942 636.199 460.609 636.199H463.129C463.689 636.199 464.129 636.426 464.449 636.879C464.795 637.332 464.875 637.826 464.689 638.359L456.609 663.239C456.422 663.879 456.049 664.399 455.489 664.799C454.955 665.199 454.342 665.399 453.649 665.399H451.009C450.342 665.399 449.729 665.199 449.169 664.799C448.635 664.399 448.262 663.879 448.049 663.239ZM452.209 701.119L449.289 712.599C449.262 712.679 449.275 712.759 449.329 712.839C449.409 712.892 449.489 712.919 449.569 712.919H454.929C455.009 712.919 455.075 712.892 455.129 712.839C455.209 712.759 455.235 712.679 455.209 712.599L452.289 701.119C452.289 701.092 452.275 701.079 452.249 701.079C452.222 701.079 452.209 701.092 452.209 701.119ZM441.529 724.399C440.969 724.399 440.515 724.172 440.169 723.719C439.849 723.266 439.782 722.772 439.969 722.239L448.049 697.359C448.262 696.719 448.635 696.199 449.169 695.799C449.729 695.399 450.342 695.199 451.009 695.199H453.649C454.342 695.199 454.969 695.399 455.529 695.799C456.089 696.199 456.462 696.719 456.649 697.359L464.689 722.239C464.875 722.772 464.795 723.266 464.449 723.719C464.129 724.172 463.689 724.399 463.129 724.399H460.449C459.782 724.399 459.182 724.199 458.649 723.799C458.115 723.372 457.769 722.839 457.609 722.199L456.649 718.399C456.622 718.186 456.489 718.079 456.249 718.079H448.249C448.035 718.079 447.902 718.186 447.849 718.399L446.889 722.199C446.729 722.839 446.382 723.372 445.849 723.799C445.315 724.199 444.715 724.399 444.049 724.399H441.529Z" fill="white"/>
</svg>
