<svg width="819" height="814" viewBox="0 0 819 814" fill="none" xmlns="http://www.w3.org/2000/svg">
<rect width="819" height="814" fill="url(#paint0_linear_581_180)"/>
<path d="M487.296 316.506C448.113 277.323 384.3 277.308 345.077 316.531C305.854 355.754 308.001 400.902 333.001 444.5C352.058 463.557 398.584 443.975 425.157 444.5C453.221 445.055 475.855 464.647 496.002 444.5C527.502 405.5 526.48 355.691 487.298 316.508L487.296 316.506ZM477.861 325.94C487.919 335.998 494.915 347.895 499.02 360.533C469.29 354.589 439.989 362.579 416.766 381.309C402.71 374.683 391.358 365.665 382.718 354.572C403.374 332.966 441.211 315.525 472.382 320.957C474.251 322.536 476.096 324.177 477.859 325.94H477.861ZM449.439 307C421.181 309.891 393.622 324.703 375.177 343.075C370.804 335.15 367.5 326.443 365.367 316.965C390.117 299.084 422.056 295.743 449.439 307ZM502.472 375.044C506.279 401.729 498.367 428.588 475.677 451.081C478.761 442.184 472.382 444.5 481.715 422.15C487.296 400.902 482.167 385.613 479.914 371.948C487.301 371.997 494.887 372.966 502.472 375.047L502.472 375.044ZM466.486 372.94C468.587 385.343 475.677 400.902 466.485 422.15C449.439 451.081 470.193 436.385 460.002 444.5C443.522 451.546 429.083 451.019 411.778 447.415C434.114 425.516 429 413 425.157 391.766C437.522 381.752 451.566 375.312 466.485 372.936L466.486 372.94ZM354.058 326.694C362.729 356.45 382.59 380.09 411.778 393.702C414.681 408.283 413.368 422.333 408.202 435.269C379.967 427.916 342.794 403.237 329.941 375.48C332.463 357.69 340.489 340.521 354.056 326.694H354.058ZM401.979 447.413C397.212 454.989 382.807 442.884 375.177 449.265C364.699 445.011 362.574 455.928 354.058 447.413C340.412 433.766 332.785 418.578 330.08 400.902C348.394 423.628 376.876 440.387 401.981 447.415L401.979 447.413Z" fill="white"/>
<path d="M673.898 575.801C662.41 563.211 649.632 551.867 635.773 541.949L656.484 517.097C657.988 515.293 658.703 512.957 658.465 510.617C658.23 508.277 657.062 506.133 655.226 504.664C639.899 493.242 623.446 483.41 606.125 475.324C639.863 394.345 647.89 285.807 649.749 241.837C650.027 232.881 647.878 224.014 643.531 216.174C639.183 208.338 632.797 201.822 625.047 197.319C584.168 172.698 457.689 126.5 413.51 126.5C369.33 126.5 242.852 172.698 202.012 197.3C194.255 201.8 187.861 208.32 183.505 216.163C179.149 224.006 176.997 232.882 177.274 241.846C179.134 285.799 187.161 394.344 220.899 475.323C203.579 483.413 187.126 493.241 171.797 504.667C169.856 506.226 168.668 508.53 168.532 511.015C168.395 513.499 169.321 515.925 171.079 517.686L193.644 540.252C178.851 550.557 165.258 562.486 153.118 575.811C151.102 578.17 150.485 581.42 151.501 584.354C152.512 587.287 155.004 589.463 158.047 590.072L193.492 597.158L186.137 641.302H186.133C185.512 645.045 187.371 648.763 190.738 650.509C194.109 652.256 198.218 651.631 200.914 648.963C201.41 648.47 249.237 601.529 297.694 580.158C357.853 635.951 408.702 650.502 411.212 651.181L411.216 651.184C411.966 651.391 412.74 651.497 413.517 651.497C414.298 651.497 415.072 651.391 415.826 651.188C418.345 650.501 468.645 636.107 528.424 581.08C575.306 603.478 625.884 648.77 626.4 649.247C629.165 651.74 633.204 652.212 636.466 650.423C639.731 648.634 641.505 644.978 640.891 641.306L633.536 597.162L668.98 590.076C672.023 589.466 674.52 587.287 675.531 584.349C676.543 581.412 675.922 578.162 673.902 575.803L673.898 575.801ZM194.754 241.115H194.75C194.61 235.295 196.043 229.545 198.906 224.474C201.766 219.404 205.941 215.201 210.996 212.31C249.449 189.147 372.514 143.999 413.514 143.999C454.513 143.999 577.571 189.147 616.061 212.326C621.108 215.217 625.276 219.416 628.131 224.482C630.982 229.549 632.416 235.291 632.271 241.103C630.455 284.005 622.67 389.761 590.217 468.03C584.092 465.393 577.518 462.78 570.58 460.21C597.689 392.922 604.033 303.602 605.482 267.222C605.771 259.621 604.021 252.078 600.415 245.379C596.806 238.684 591.474 233.07 584.967 229.129C551.584 208.535 450.438 170.251 413.519 170.251C376.599 170.251 275.45 208.535 242.091 229.113C235.583 233.05 230.243 238.66 226.634 245.355C223.021 252.054 221.267 259.597 221.552 267.198C223.001 303.604 229.345 392.927 256.454 460.216C249.52 462.786 242.942 465.399 236.817 468.036C204.364 389.764 196.58 284.009 194.763 241.119L194.754 241.115ZM439 433.544L413.508 432L386.031 433.544C386.031 433.544 386.031 433.544 363.031 435.447C349.066 436.602 337.397 438.901 337.397 438.901C315.574 442.456 294.046 447.647 273 454.436C246.642 389.687 240.45 302.118 239.032 266.478C238.879 261.986 239.93 257.533 242.079 253.583C244.223 249.638 247.387 246.333 251.243 244.021C282.18 224.943 380.841 187.749 413.51 187.749C446.18 187.749 544.849 224.943 575.808 244.037C579.66 246.353 582.82 249.658 584.961 253.611C587.105 257.56 588.152 262.009 587.996 266.502C586.574 302.126 580.382 389.69 554.027 454.439H554.023C532.976 447.65 511.45 442.46 489.626 438.905L461.5 435.447L439 433.544ZM190.776 512.631C257.463 470.811 334.814 449.148 413.513 450.245C492.528 449.112 570.171 470.964 637.001 513.135L604.896 551.661C585.841 537.244 528.268 502.744 413.508 502.744C310.24 502.744 249.601 538.892 230.551 552.407L190.776 512.631ZM502.846 528.819C477.863 555.404 447.378 576.213 413.519 589.791C380.399 576.541 350.516 556.322 325.895 530.511C354.583 523.565 384.004 520.116 413.519 520.245C443.511 520.038 473.441 522.913 502.846 528.819ZM207.556 619.275L212.154 591.685C212.931 587.025 209.873 582.591 205.244 581.665L177.33 576.079C186.388 567.638 196.053 559.868 206.244 552.837L223.587 570.181C226.822 573.4 231.982 573.607 235.458 570.65C245.794 562.767 256.974 556.056 268.794 550.646C273.97 556.435 279.11 561.908 284.216 567.068H284.219C256.611 581.244 230.861 598.779 207.556 619.275ZM413.503 633.579C401.594 629.646 345.524 608.432 285.705 543.28C292.119 540.721 299.014 538.194 306.646 535.799C360.711 592.708 409.084 606.833 411.164 607.415H411.161C412.704 607.849 414.336 607.849 415.879 607.415C418.008 606.821 467.625 592.313 522.538 533.533C530.35 535.658 537.686 537.889 544.218 540.221C483.456 607.493 425.599 629.543 413.499 633.578L413.503 633.579ZM621.801 581.67C617.172 582.596 614.113 587.029 614.891 591.69L619.719 620.643H619.715C595.547 600.631 569.465 583.057 541.849 568.166C548.325 561.662 554.861 554.658 561.453 547.151C575.355 552.803 588.305 560.568 599.832 570.181C601.473 571.822 603.699 572.744 606.019 572.744L606.414 572.736C608.871 572.623 611.168 571.482 612.746 569.595L624.551 555.431V555.428C633.359 561.775 641.761 568.673 649.702 576.083L621.801 581.67Z" fill="url(#paint1_linear_581_180)"/>
<path fill-rule="evenodd" clip-rule="evenodd" d="M332.555 248.124C333.482 245.292 337.519 245.292 338.446 248.124L341.858 258.543L352.897 258.543C355.897 258.543 357.145 262.353 354.718 264.104L345.787 270.543L349.198 280.963C350.125 283.795 346.859 286.149 344.431 284.399L335.5 277.96L326.569 284.399C324.141 286.149 320.875 283.795 321.803 280.963L325.213 270.543L316.282 264.104C313.855 262.353 315.103 258.543 318.103 258.543L329.142 258.543L332.555 248.124ZM335.5 251.063L332.538 260.107C332.124 261.374 330.935 262.231 329.593 262.231L320.01 262.232L327.763 267.822C328.848 268.605 329.303 269.992 328.888 271.259L325.927 280.303L333.68 274.714C334.765 273.931 336.235 273.931 337.321 274.714L345.074 280.303L342.113 271.259C341.699 269.992 342.153 268.604 343.238 267.822L350.991 262.232L341.407 262.231C340.066 262.231 338.877 261.374 338.462 260.107L335.5 251.063Z" fill="#E6DAB9"/>
<path fill-rule="evenodd" clip-rule="evenodd" d="M408.555 209.124C409.482 206.292 413.519 206.292 414.446 209.124L417.858 219.543L428.897 219.543C431.897 219.543 433.145 223.353 430.718 225.104L421.787 231.543L425.198 241.963C426.125 244.795 422.859 247.149 420.431 245.399L411.5 238.96L402.569 245.399C400.141 247.149 396.875 244.795 397.803 241.963L401.213 231.543L392.282 225.104C389.855 223.353 391.103 219.543 394.103 219.543L405.142 219.543L408.555 209.124ZM411.5 212.063L408.538 221.107C408.124 222.374 406.935 223.231 405.593 223.231L396.01 223.232L403.763 228.822C404.848 229.605 405.303 230.992 404.888 232.259L401.927 241.303L409.68 235.714C410.765 234.931 412.235 234.931 413.321 235.714L421.074 241.303L418.113 232.259C417.699 230.992 418.153 229.604 419.238 228.822L426.991 223.232L417.407 223.231C416.066 223.231 414.877 222.374 414.462 221.107L411.5 212.063Z" fill="#E6DAB9"/>
<path fill-rule="evenodd" clip-rule="evenodd" d="M484.555 248.124C485.482 245.292 489.519 245.292 490.446 248.124L493.858 258.543L504.897 258.543C507.897 258.543 509.145 262.353 506.718 264.104L497.787 270.543L501.198 280.963C502.125 283.795 498.859 286.149 496.431 284.399L487.5 277.96L478.569 284.399C476.141 286.149 472.875 283.795 473.803 280.963L477.213 270.543L468.282 264.104C465.855 262.353 467.103 258.543 470.103 258.543L481.142 258.543L484.555 248.124ZM487.5 251.063L484.538 260.107C484.124 261.374 482.935 262.231 481.593 262.231L472.01 262.232L479.763 267.822C480.848 268.605 481.303 269.992 480.888 271.259L477.927 280.303L485.68 274.714C486.765 273.931 488.235 273.931 489.321 274.714L497.074 280.303L494.113 271.259C493.699 269.992 494.153 268.604 495.238 267.822L502.991 262.232L493.407 262.231C492.066 262.231 490.877 261.374 490.462 260.107L487.5 251.063Z" fill="#E6DAB9"/>
<defs>
<linearGradient id="paint0_linear_581_180" x1="409.5" y1="0" x2="409.5" y2="814" gradientUnits="userSpaceOnUse">
<stop stop-color="#513BB4"/>
<stop offset="1" stop-color="#613085"/>
</linearGradient>
<linearGradient id="paint1_linear_581_180" x1="409.477" y1="125" x2="420.482" y2="829.5" gradientUnits="userSpaceOnUse">
<stop stop-color="#E7E7E7"/>
<stop offset="0.85157" stop-color="#E4BA48"/>
</linearGradient>
</defs>
</svg>
