<svg width="340" height="238" viewBox="0 0 340 238" fill="none" xmlns="http://www.w3.org/2000/svg">
<path d="M1.5 1.5H338.5V159V236.5H1.5V167V1.5Z" fill="url(#paint0_linear_204_1822)" stroke="url(#paint1_linear_204_1822)" stroke-width="3"/>
<path d="M2 236V167.908C54.4 190.013 180 216.822 233 203.5C285.5 255 318.5 203.5 313.5 176L338 161V236H2Z" fill="url(#paint2_linear_204_1822)" stroke="#1C116C"/>
<path d="M154.919 51.608C154.247 51.24 153.559 50.936 152.855 50.696C152.167 50.456 151.519 50.336 150.911 50.336C150.159 50.336 149.567 50.488 149.135 50.792C148.703 51.096 148.487 51.552 148.487 52.16C148.487 52.576 148.647 52.952 148.967 53.288C149.303 53.608 149.727 53.896 150.239 54.152C150.767 54.408 151.311 54.64 151.871 54.848C152.383 55.04 152.887 55.272 153.383 55.544C153.895 55.8 154.351 56.128 154.751 56.528C155.151 56.912 155.471 57.4 155.711 57.992C155.951 58.568 156.071 59.28 156.071 60.128C156.071 61.024 155.839 61.856 155.375 62.624C154.911 63.392 154.231 64.016 153.335 64.496C152.439 64.96 151.335 65.192 150.023 65.192C149.351 65.192 148.663 65.128 147.959 65C147.271 64.856 146.591 64.648 145.919 64.376C145.247 64.088 144.599 63.728 143.975 63.296L145.511 60.584C145.927 60.888 146.375 61.16 146.855 61.4C147.351 61.624 147.847 61.8 148.343 61.928C148.839 62.056 149.295 62.12 149.711 62.12C150.127 62.12 150.543 62.064 150.959 61.952C151.391 61.824 151.743 61.616 152.015 61.328C152.303 61.04 152.447 60.64 152.447 60.128C152.447 59.776 152.327 59.456 152.087 59.168C151.863 58.88 151.551 58.616 151.151 58.376C150.767 58.136 150.343 57.928 149.879 57.752C149.335 57.544 148.775 57.304 148.199 57.032C147.623 56.76 147.079 56.432 146.567 56.048C146.071 55.648 145.663 55.16 145.343 54.584C145.039 53.992 144.887 53.272 144.887 52.424C144.887 51.4 145.111 50.512 145.559 49.76C146.023 49.008 146.671 48.416 147.503 47.984C148.335 47.536 149.295 47.288 150.383 47.24C151.807 47.24 152.959 47.408 153.839 47.744C154.735 48.08 155.535 48.48 156.239 48.944L154.919 51.608ZM149.543 70.856L147.815 69.704C148.167 69.368 148.415 68.872 148.559 68.216C148.719 67.576 148.743 66.976 148.631 66.416L151.559 66.44C151.655 66.888 151.623 67.392 151.463 67.952C151.319 68.528 151.079 69.072 150.743 69.584C150.423 70.112 150.023 70.536 149.543 70.856ZM158.279 47.336H170.183V50.696H165.887V65H162.407V50.696H158.279V47.336ZM173.542 47.336H177.022V65H173.542V47.336ZM186.933 47.336C188.037 47.336 189.021 47.48 189.885 47.768C190.749 48.04 191.469 48.44 192.045 48.968C192.637 49.48 193.085 50.104 193.389 50.84C193.693 51.56 193.845 52.376 193.845 53.288C193.845 54.008 193.733 54.728 193.509 55.448C193.301 56.168 192.949 56.824 192.453 57.416C191.973 58.008 191.333 58.488 190.533 58.856C189.733 59.208 188.741 59.384 187.557 59.384H185.061V65H181.581V47.336H186.933ZM187.533 56.024C188.061 56.024 188.501 55.936 188.853 55.76C189.205 55.584 189.477 55.36 189.669 55.088C189.877 54.816 190.021 54.536 190.101 54.248C190.197 53.944 190.245 53.664 190.245 53.408C190.245 53.216 190.213 52.976 190.149 52.688C190.101 52.384 189.989 52.08 189.813 51.776C189.637 51.472 189.365 51.216 188.997 51.008C188.645 50.8 188.165 50.696 187.557 50.696H185.061V56.024H187.533ZM190.797 58.184L195.165 65H191.109L186.645 58.28L190.797 58.184ZM198.034 47.336H201.514V65H198.034V47.336ZM65.7819 111.536C65.5899 111.696 65.2299 111.912 64.7019 112.184C64.1899 112.456 63.5579 112.696 62.8059 112.904C62.0539 113.112 61.2219 113.208 60.3099 113.192C58.9179 113.16 57.6699 112.912 56.5659 112.448C55.4779 111.968 54.5499 111.32 53.7819 110.504C53.0299 109.688 52.4539 108.752 52.0539 107.696C51.6539 106.64 51.4539 105.512 51.4539 104.312C51.4539 102.968 51.6539 101.736 52.0539 100.616C52.4699 99.496 53.0539 98.528 53.8059 97.712C54.5739 96.896 55.4859 96.264 56.5419 95.816C57.5979 95.368 58.7659 95.144 60.0459 95.144C61.2299 95.144 62.2779 95.304 63.1899 95.624C64.1019 95.944 64.8459 96.288 65.4219 96.656L64.0539 99.944C63.6539 99.64 63.1179 99.328 62.4459 99.008C61.7899 98.672 61.0299 98.504 60.1659 98.504C59.4939 98.504 58.8459 98.648 58.2219 98.936C57.6139 99.208 57.0699 99.6 56.5899 100.112C56.1259 100.624 55.7579 101.224 55.4859 101.912C55.2139 102.584 55.0779 103.32 55.0779 104.12C55.0779 104.968 55.1979 105.744 55.4379 106.448C55.6939 107.152 56.0539 107.76 56.5179 108.272C56.9819 108.768 57.5339 109.152 58.1739 109.424C58.8299 109.696 59.5659 109.832 60.3819 109.832C61.3259 109.832 62.1339 109.68 62.8059 109.376C63.4779 109.072 63.9899 108.752 64.3419 108.416L65.7819 111.536ZM67.3483 111.272C67.3483 110.776 67.5243 110.36 67.8763 110.024C68.2443 109.688 68.6443 109.52 69.0763 109.52C69.4763 109.52 69.8523 109.688 70.2043 110.024C70.5723 110.36 70.7563 110.776 70.7563 111.272C70.7563 111.8 70.5723 112.224 70.2043 112.544C69.8523 112.848 69.4763 113 69.0763 113C68.6443 113 68.2443 112.848 67.8763 112.544C67.5243 112.224 67.3483 111.8 67.3483 111.272ZM82.8253 99.608C82.1533 99.24 81.4653 98.936 80.7613 98.696C80.0733 98.456 79.4253 98.336 78.8173 98.336C78.0653 98.336 77.4733 98.488 77.0413 98.792C76.6093 99.096 76.3933 99.552 76.3933 100.16C76.3933 100.576 76.5533 100.952 76.8733 101.288C77.2093 101.608 77.6333 101.896 78.1453 102.152C78.6733 102.408 79.2173 102.64 79.7773 102.848C80.2893 103.04 80.7933 103.272 81.2893 103.544C81.8013 103.8 82.2573 104.128 82.6573 104.528C83.0573 104.912 83.3773 105.4 83.6173 105.992C83.8573 106.568 83.9773 107.28 83.9773 108.128C83.9773 109.024 83.7453 109.856 83.2813 110.624C82.8173 111.392 82.1373 112.016 81.2413 112.496C80.3453 112.96 79.2413 113.192 77.9293 113.192C77.2573 113.192 76.5693 113.128 75.8653 113C75.1773 112.856 74.4973 112.648 73.8253 112.376C73.1533 112.088 72.5053 111.728 71.8813 111.296L73.4173 108.584C73.8333 108.888 74.2813 109.16 74.7613 109.4C75.2573 109.624 75.7533 109.8 76.2493 109.928C76.7453 110.056 77.2013 110.12 77.6173 110.12C78.0333 110.12 78.4493 110.064 78.8653 109.952C79.2973 109.824 79.6493 109.616 79.9213 109.328C80.2093 109.04 80.3533 108.64 80.3533 108.128C80.3533 107.776 80.2333 107.456 79.9933 107.168C79.7693 106.88 79.4573 106.616 79.0573 106.376C78.6733 106.136 78.2493 105.928 77.7853 105.752C77.2413 105.544 76.6813 105.304 76.1053 105.032C75.5293 104.76 74.9853 104.432 74.4733 104.048C73.9773 103.648 73.5693 103.16 73.2493 102.584C72.9453 101.992 72.7933 101.272 72.7933 100.424C72.7933 99.4 73.0173 98.512 73.4653 97.76C73.9293 97.008 74.5773 96.416 75.4093 95.984C76.2413 95.536 77.2013 95.288 78.2893 95.24C79.7133 95.24 80.8653 95.408 81.7453 95.744C82.6413 96.08 83.4413 96.48 84.1453 96.944L82.8253 99.608ZM85.4655 111.272C85.4655 110.776 85.6415 110.36 85.9935 110.024C86.3615 109.688 86.7615 109.52 87.1935 109.52C87.5935 109.52 87.9695 109.688 88.3215 110.024C88.6895 110.36 88.8735 110.776 88.8735 111.272C88.8735 111.8 88.6895 112.224 88.3215 112.544C87.9695 112.848 87.5935 113 87.1935 113C86.7615 113 86.3615 112.848 85.9935 112.544C85.6415 112.224 85.4655 111.8 85.4655 111.272ZM91.5105 113V94.616H91.5345L101.35 108.536L99.8625 108.2L109.654 94.616H109.702V113H106.222V102.464L106.438 104.264L100.462 112.76H100.414L94.2705 104.264L94.8705 102.608V113H91.5105ZM112.348 111.272C112.348 110.776 112.524 110.36 112.876 110.024C113.244 109.688 113.644 109.52 114.076 109.52C114.476 109.52 114.852 109.688 115.204 110.024C115.572 110.36 115.756 110.776 115.756 111.272C115.756 111.8 115.572 112.224 115.204 112.544C114.852 112.848 114.476 113 114.076 113C113.644 113 113.244 112.848 112.876 112.544C112.524 112.224 112.348 111.8 112.348 111.272ZM135.63 99.608C134.958 99.24 134.27 98.936 133.566 98.696C132.878 98.456 132.23 98.336 131.622 98.336C130.87 98.336 130.278 98.488 129.846 98.792C129.414 99.096 129.198 99.552 129.198 100.16C129.198 100.576 129.358 100.952 129.678 101.288C130.014 101.608 130.438 101.896 130.95 102.152C131.478 102.408 132.022 102.64 132.582 102.848C133.094 103.04 133.598 103.272 134.094 103.544C134.606 103.8 135.062 104.128 135.462 104.528C135.862 104.912 136.182 105.4 136.422 105.992C136.662 106.568 136.782 107.28 136.782 108.128C136.782 109.024 136.55 109.856 136.086 110.624C135.622 111.392 134.942 112.016 134.046 112.496C133.15 112.96 132.046 113.192 130.734 113.192C130.062 113.192 129.374 113.128 128.67 113C127.982 112.856 127.302 112.648 126.63 112.376C125.958 112.088 125.31 111.728 124.686 111.296L126.222 108.584C126.638 108.888 127.086 109.16 127.566 109.4C128.062 109.624 128.558 109.8 129.054 109.928C129.55 110.056 130.006 110.12 130.422 110.12C130.838 110.12 131.254 110.064 131.67 109.952C132.102 109.824 132.454 109.616 132.726 109.328C133.014 109.04 133.158 108.64 133.158 108.128C133.158 107.776 133.038 107.456 132.798 107.168C132.574 106.88 132.262 106.616 131.862 106.376C131.478 106.136 131.054 105.928 130.59 105.752C130.046 105.544 129.486 105.304 128.91 105.032C128.334 104.76 127.79 104.432 127.278 104.048C126.782 103.648 126.374 103.16 126.054 102.584C125.75 101.992 125.598 101.272 125.598 100.424C125.598 99.4 125.822 98.512 126.27 97.76C126.734 97.008 127.382 96.416 128.214 95.984C129.046 95.536 130.006 95.288 131.094 95.24C132.518 95.24 133.67 95.408 134.55 95.744C135.446 96.08 136.246 96.48 136.95 96.944L135.63 99.608ZM143.022 113.504C142.078 113.504 141.286 113.216 140.646 112.64C140.006 112.048 139.67 111.288 139.638 110.36V102.512H142.998V109.112C143.03 109.576 143.15 109.952 143.358 110.24C143.566 110.512 143.918 110.648 144.414 110.648C144.91 110.648 145.334 110.48 145.686 110.144C146.054 109.808 146.334 109.352 146.526 108.776C146.734 108.184 146.838 107.52 146.838 106.784V102.512H150.198V113H147.15L146.886 111.08L146.934 111.296C146.694 111.728 146.39 112.112 146.022 112.448C145.654 112.784 145.214 113.04 144.702 113.216C144.206 113.408 143.646 113.504 143.022 113.504ZM162.558 112.064C162.094 112.432 161.51 112.728 160.806 112.952C160.118 113.176 159.438 113.288 158.766 113.288C157.566 113.288 156.518 113.072 155.622 112.64C154.742 112.192 154.054 111.56 153.558 110.744C153.078 109.912 152.838 108.912 152.838 107.744C152.838 106.576 153.102 105.584 153.63 104.768C154.158 103.936 154.846 103.304 155.694 102.872C156.558 102.44 157.462 102.224 158.406 102.224C159.35 102.224 160.166 102.352 160.854 102.608C161.558 102.864 162.158 103.2 162.654 103.616L161.022 105.776C160.798 105.6 160.486 105.424 160.086 105.248C159.702 105.056 159.246 104.96 158.718 104.96C158.254 104.96 157.83 105.08 157.446 105.32C157.062 105.56 156.758 105.888 156.534 106.304C156.31 106.72 156.198 107.2 156.198 107.744C156.198 108.256 156.318 108.728 156.558 109.16C156.798 109.592 157.126 109.936 157.542 110.192C157.974 110.432 158.478 110.552 159.054 110.552C159.422 110.552 159.758 110.504 160.062 110.408C160.382 110.296 160.654 110.144 160.878 109.952L162.558 112.064ZM170.298 113.288C169.018 113.288 167.93 113.048 167.034 112.568C166.154 112.088 165.482 111.424 165.018 110.576C164.554 109.728 164.322 108.752 164.322 107.648C164.322 106.592 164.594 105.64 165.138 104.792C165.682 103.944 166.41 103.272 167.322 102.776C168.234 102.264 169.25 102.008 170.37 102.008C171.874 102.008 173.106 102.448 174.066 103.328C175.042 104.192 175.674 105.448 175.962 107.096L167.802 109.688L167.058 107.864L172.962 105.872L172.266 106.184C172.138 105.768 171.906 105.408 171.57 105.104C171.25 104.784 170.762 104.624 170.106 104.624C169.61 104.624 169.17 104.744 168.786 104.984C168.418 105.208 168.13 105.536 167.922 105.968C167.73 106.384 167.634 106.88 167.634 107.456C167.634 108.112 167.754 108.664 167.994 109.112C168.234 109.544 168.562 109.872 168.978 110.096C169.394 110.32 169.858 110.432 170.37 110.432C170.738 110.432 171.09 110.368 171.426 110.24C171.778 110.112 172.122 109.944 172.458 109.736L173.946 112.232C173.386 112.552 172.778 112.808 172.122 113C171.482 113.192 170.874 113.288 170.298 113.288ZM182.82 113.288C181.844 113.288 180.956 113.096 180.156 112.712C179.372 112.312 178.748 111.704 178.284 110.888C177.82 110.072 177.588 109.032 177.588 107.768C177.588 106.584 177.828 105.56 178.308 104.696C178.788 103.832 179.42 103.168 180.204 102.704C180.988 102.224 181.82 101.984 182.7 101.984C183.74 101.984 184.524 102.16 185.052 102.512C185.596 102.848 186.044 103.224 186.396 103.64L186.252 104.048L186.564 102.512H189.684V113H186.324V110.72L186.588 111.44C186.556 111.44 186.46 111.536 186.3 111.728C186.14 111.904 185.9 112.12 185.58 112.376C185.276 112.616 184.892 112.824 184.428 113C183.98 113.192 183.444 113.288 182.82 113.288ZM183.78 110.552C184.18 110.552 184.54 110.496 184.86 110.384C185.18 110.256 185.46 110.08 185.7 109.856C185.94 109.616 186.148 109.32 186.324 108.968V106.4C186.196 106.048 186.004 105.752 185.748 105.512C185.492 105.256 185.188 105.064 184.836 104.936C184.484 104.792 184.092 104.72 183.66 104.72C183.18 104.72 182.732 104.848 182.316 105.104C181.916 105.344 181.596 105.68 181.356 106.112C181.116 106.544 180.996 107.04 180.996 107.6C180.996 108.16 181.124 108.664 181.38 109.112C181.636 109.56 181.972 109.912 182.388 110.168C182.82 110.424 183.284 110.552 183.78 110.552ZM197.946 113.216L191.658 102.512H195.642L199.218 109.76L197.154 109.688L200.25 102.512H203.994L198.042 113.216H197.946ZM209.914 113.288C208.938 113.288 208.05 113.096 207.25 112.712C206.466 112.312 205.842 111.704 205.378 110.888C204.914 110.072 204.682 109.032 204.682 107.768C204.682 106.584 204.922 105.56 205.402 104.696C205.882 103.832 206.514 103.168 207.298 102.704C208.082 102.224 208.914 101.984 209.794 101.984C210.834 101.984 211.618 102.16 212.146 102.512C212.69 102.848 213.138 103.224 213.49 103.64L213.346 104.048L213.658 102.512H216.778V113H213.418V110.72L213.682 111.44C213.65 111.44 213.554 111.536 213.394 111.728C213.234 111.904 212.994 112.12 212.674 112.376C212.37 112.616 211.986 112.824 211.522 113C211.074 113.192 210.538 113.288 209.914 113.288ZM210.874 110.552C211.274 110.552 211.634 110.496 211.954 110.384C212.274 110.256 212.554 110.08 212.794 109.856C213.034 109.616 213.242 109.32 213.418 108.968V106.4C213.29 106.048 213.098 105.752 212.842 105.512C212.586 105.256 212.282 105.064 211.93 104.936C211.578 104.792 211.186 104.72 210.754 104.72C210.274 104.72 209.826 104.848 209.41 105.104C209.01 105.344 208.69 105.68 208.45 106.112C208.21 106.544 208.09 107.04 208.09 107.6C208.09 108.16 208.218 108.664 208.474 109.112C208.73 109.56 209.066 109.912 209.482 110.168C209.914 110.424 210.378 110.552 210.874 110.552ZM227.612 106.04H232.124V108.968H227.612V106.04ZM246.401 95.336L251.561 108.056L249.545 107.648L254.225 95.336H258.353L250.289 113.816L242.225 95.336H246.401ZM257.041 107.624C257.041 106.552 257.289 105.592 257.785 104.744C258.297 103.896 259.009 103.232 259.921 102.752C260.833 102.256 261.881 102.008 263.065 102.008C264.265 102.008 265.305 102.256 266.185 102.752C267.065 103.232 267.737 103.896 268.201 104.744C268.681 105.592 268.921 106.552 268.921 107.624C268.921 108.696 268.681 109.664 268.201 110.528C267.737 111.376 267.065 112.048 266.185 112.544C265.305 113.04 264.249 113.288 263.017 113.288C261.865 113.288 260.833 113.064 259.921 112.616C259.025 112.168 258.321 111.52 257.809 110.672C257.297 109.824 257.041 108.808 257.041 107.624ZM260.425 107.648C260.425 108.192 260.537 108.688 260.761 109.136C260.985 109.568 261.289 109.912 261.673 110.168C262.057 110.424 262.489 110.552 262.969 110.552C263.497 110.552 263.953 110.424 264.337 110.168C264.721 109.912 265.017 109.568 265.225 109.136C265.433 108.688 265.537 108.192 265.537 107.648C265.537 107.088 265.433 106.592 265.225 106.16C265.017 105.728 264.721 105.384 264.337 105.128C263.953 104.872 263.497 104.744 262.969 104.744C262.489 104.744 262.057 104.872 261.673 105.128C261.289 105.384 260.985 105.728 260.761 106.16C260.537 106.592 260.425 107.088 260.425 107.648ZM271.568 94.064H274.928V113H271.568V94.064ZM283.548 113.288C282.268 113.288 281.18 113.048 280.284 112.568C279.404 112.088 278.732 111.424 278.268 110.576C277.804 109.728 277.572 108.752 277.572 107.648C277.572 106.592 277.844 105.64 278.388 104.792C278.932 103.944 279.66 103.272 280.572 102.776C281.484 102.264 282.5 102.008 283.62 102.008C285.124 102.008 286.356 102.448 287.316 103.328C288.292 104.192 288.924 105.448 289.212 107.096L281.052 109.688L280.308 107.864L286.212 105.872L285.516 106.184C285.388 105.768 285.156 105.408 284.82 105.104C284.5 104.784 284.012 104.624 283.356 104.624C282.86 104.624 282.42 104.744 282.036 104.984C281.668 105.208 281.38 105.536 281.172 105.968C280.98 106.384 280.884 106.88 280.884 107.456C280.884 108.112 281.004 108.664 281.244 109.112C281.484 109.544 281.812 109.872 282.228 110.096C282.644 110.32 283.108 110.432 283.62 110.432C283.988 110.432 284.34 110.368 284.676 110.24C285.028 110.112 285.372 109.944 285.708 109.736L287.196 112.232C286.636 112.552 286.028 112.808 285.372 113C284.732 113.192 284.124 113.288 283.548 113.288ZM291.654 102.512H295.014V113H291.654V102.512ZM291.582 98.792C291.582 98.296 291.774 97.888 292.158 97.568C292.558 97.248 292.982 97.088 293.43 97.088C293.878 97.088 294.286 97.248 294.654 97.568C295.038 97.888 295.23 98.296 295.23 98.792C295.23 99.288 295.038 99.696 294.654 100.016C294.286 100.32 293.878 100.472 293.43 100.472C292.982 100.472 292.558 100.32 292.158 100.016C291.774 99.696 291.582 99.288 291.582 98.792Z" fill="#E4BA48"/>
<path d="M314.079 172.621C312.62 166.808 309.983 161.369 306.291 156.589C306.249 156.527 306.201 156.471 306.153 156.414C304.951 154.875 303.649 153.399 302.232 152.008C293.842 143.777 282.749 139.305 270.997 139.416C259.662 139.523 249.029 143.892 240.903 151.728C240.766 151.831 240.645 151.945 240.545 152.076C240.368 152.251 240.184 152.418 240.008 152.596C231.777 160.985 227.304 172.077 227.415 183.829C227.526 195.581 232.208 206.587 240.596 214.819C245.971 220.093 252.458 223.815 259.515 225.786L259.517 225.786C263.474 226.89 267.607 227.452 271.829 227.412C273.599 227.395 275.349 227.262 277.077 227.041L277.082 227.041C277.092 227.041 277.103 227.036 277.114 227.036C286.852 225.783 295.836 221.347 302.819 214.231C311.05 205.843 315.523 194.75 315.412 182.998C315.378 179.456 314.922 175.983 314.081 172.632C314.081 172.628 314.08 172.624 314.08 172.62L314.079 172.621ZM277.216 223.247C271.19 221.303 264.993 215.259 260.961 207.347C258.112 201.758 254.075 190.694 257.955 177.944C262.217 179.174 266.194 181.221 269.348 184.054C268.221 189.318 268.619 194.964 270.175 200.289C270.178 200.309 270.176 200.329 270.18 200.349C270.21 200.513 270.267 200.663 270.334 200.806C271.769 205.47 274.087 209.861 277.04 213.503C277.133 213.661 277.247 213.8 277.378 213.923C279.863 216.89 282.777 219.321 285.973 220.957C283.168 222.044 280.234 222.815 277.216 223.247L277.216 223.247ZM260.671 222.218C245.245 213.792 238.642 195.687 244.011 176.823C247.341 176.397 250.858 176.491 254.299 177.097C251.278 187.38 252.453 198.9 257.625 209.047C260.75 215.18 265.129 220.328 269.857 223.638C266.717 223.521 263.64 223.036 260.671 222.218L260.671 222.218ZM233.983 168.554C238.673 164.289 247.022 161.931 255.912 162.397C262.183 162.725 273.796 164.782 282.902 174.543C279.624 177.683 275.844 180.026 271.893 181.31C267.897 177.702 262.81 175.222 257.42 173.908C257.4 173.901 257.383 173.889 257.363 173.881C257.206 173.826 257.049 173.8 256.891 173.786C252.127 172.696 247.157 172.508 242.519 173.248C242.333 173.252 242.15 173.278 241.976 173.335C238.182 174.004 234.637 175.307 231.633 177.246C232.092 174.252 232.877 171.339 233.983 168.554L233.983 168.554ZM279.406 210.442C277.372 207.769 275.695 204.677 274.499 201.394C284.914 198.87 294.304 192.092 300.504 182.54C304.256 176.761 306.526 170.386 307.027 164.632C308.478 167.376 309.61 170.275 310.386 173.29C310.817 190.873 298.436 205.655 279.406 210.441L279.406 210.442ZM303.008 158.48C304.334 164.67 302.199 173.056 297.364 180.501C293.949 185.761 286.376 194.773 273.4 197.791C272.338 193.49 272.123 189.028 272.998 184.885C280.166 182.57 286.811 177.232 291.363 170.077C295.126 164.162 296.95 157.814 296.65 152.048C297.67 152.873 298.658 153.75 299.607 154.682C300.832 155.884 301.96 157.157 303.008 158.48L303.008 158.48ZM292.474 149.106C293.173 152.124 293.05 155.539 292.165 159.032C281.682 148.945 268.542 144.459 256.058 146.189C260.747 144.255 265.807 143.211 271.032 143.161C278.717 143.089 286.088 145.17 292.473 149.106L292.474 149.106ZM242.679 155.219C242.864 155.031 243.057 154.855 243.245 154.67C258.254 145.567 277.21 148.922 290.844 163C290.137 164.713 289.254 166.414 288.204 168.066C287.368 169.38 286.453 170.622 285.478 171.789C278.082 164.007 267.501 159.251 256.109 158.655C249.233 158.294 242.582 159.514 237.351 161.954C238.869 159.556 240.644 157.295 242.68 155.219L242.679 155.219ZM231.159 183.796C231.154 183.301 231.168 182.811 231.181 182.319C233.52 180.133 236.541 178.58 239.918 177.642C236.435 191.731 239.099 205.322 246.798 215.261C245.556 214.298 244.357 213.265 243.218 212.148C235.543 204.617 231.26 194.548 231.159 183.796L231.159 183.796ZM300.144 211.61C297.296 214.511 294.085 216.926 290.612 218.815C287.538 217.885 284.668 216.041 282.159 213.577C296.114 209.546 306.558 200.428 311.31 188.776C310.175 197.363 306.317 205.318 300.143 211.611L300.144 211.61Z" fill="#D4CEFF"/>
<defs>
<linearGradient id="paint0_linear_204_1822" x1="170" y1="0" x2="170" y2="238" gradientUnits="userSpaceOnUse">
<stop stop-color="#4743D2"/>
<stop offset="1" stop-color="#6C2865"/>
</linearGradient>
<linearGradient id="paint1_linear_204_1822" x1="174.5" y1="18" x2="174.5" y2="256" gradientUnits="userSpaceOnUse">
<stop offset="1" stop-color="#1C116C"/>
</linearGradient>
<linearGradient id="paint2_linear_204_1822" x1="339.5" y1="163.961" x2="2.40443" y2="237.845" gradientUnits="userSpaceOnUse">
<stop offset="0.406591" stop-color="white" stop-opacity="0.62"/>
<stop offset="1" stop-color="#FFBA00"/>
</linearGradient>
</defs>
</svg>
